<svg width="187" height="188" viewBox="0 0 187 188" fill="none" xmlns="http://www.w3.org/2000/svg">
<path d="M141.1 55.2111C139.357 56.3939 138.856 58.7974 139.771 60.9417C137.282 63.0612 134.317 65.3145 130.85 67.496C128.919 68.7059 127.026 69.7755 125.211 70.716C124.987 70.387 124.756 70.0581 124.521 69.7324C123.375 68.148 122.135 66.6727 120.825 65.2999C121.186 64.0412 121.732 62.5979 122.571 61.0923C124.016 58.476 125.802 56.6267 127.309 55.3762C129.393 56.6234 131.937 56.386 133.312 54.6942C134.863 52.7875 134.353 49.7606 132.164 47.9383C129.98 46.1123 126.955 46.1713 125.404 48.078C123.994 49.8162 124.292 52.4837 126.011 54.3257C125.211 56.1341 123.784 58.499 121.281 60.4073C120.048 61.3502 118.821 61.9744 117.765 62.3973C115.488 60.4421 113.036 58.7629 110.452 57.377C110.814 55.565 111.331 53.5475 112.098 51.4065C113.204 48.3022 114.545 45.6843 115.847 43.5585C118.119 44.1385 120.407 43.2227 121.262 41.2511C122.245 38.9891 120.952 36.1882 118.383 34.9967C115.815 33.8057 112.932 34.6817 111.95 36.9465C111.098 38.9114 111.959 41.2862 113.886 42.652C113.207 45.0858 112.212 47.8567 110.716 50.7675C109.704 52.7501 108.617 54.4867 107.568 55.9689C105.013 54.8348 102.364 53.9706 99.6618 53.3873C98.6874 50.8263 97.8476 47.6202 97.6879 43.9117C97.5465 40.4386 98.0314 37.4782 98.6258 35.2138C100.985 35.074 102.902 33.4445 103.08 31.2539C103.287 28.7688 101.194 26.5052 98.3974 26.2025C95.6075 25.8896 93.1776 27.651 92.9756 30.1332C92.7977 32.3238 94.3976 34.345 96.7011 34.9984C96.9162 37.2928 96.925 40.3246 96.1939 43.7473C95.387 47.5238 93.9628 50.4658 92.724 52.4984C89.5496 52.3704 86.3678 52.6143 83.2404 53.2488C82.8762 52.0286 82.6211 50.7203 82.5188 49.327C82.4429 48.2188 82.4698 47.1762 82.5626 46.2152C84.897 45.669 86.517 43.6761 86.2839 41.4523C86.0317 38.9631 83.5649 37.119 80.7785 37.3364C77.9917 37.5533 75.9411 39.7438 76.1957 42.2363C76.4231 44.4236 78.3574 46.1142 80.7134 46.3431C81.003 47.3743 81.251 48.4817 81.4383 49.6579C81.6603 51.0065 81.7852 52.3067 81.8287 53.5613C81.517 53.6368 81.2126 53.7126 80.9084 53.7984C77.324 54.747 73.841 56.2276 70.5569 58.2507C69.0186 57.2032 67.4373 55.9529 65.8759 54.4531C62.6935 51.39 60.5945 48.239 59.2245 45.7234C60.7964 44.0367 61.0971 41.5669 59.8154 39.7945C58.3384 37.7519 55.3216 37.4118 53.0756 39.036C50.8252 40.6634 50.1985 43.6382 51.6756 45.6807C52.9792 47.4835 55.4837 47.956 57.599 46.9251C59.6484 48.8991 62.213 51.8817 64.2495 56.0165C65.1402 57.8407 65.7955 59.6164 66.2815 61.3013C63.4166 63.6367 60.9733 66.3065 58.951 69.2241C58.1284 68.8797 57.3198 68.4782 56.4635 67.9343C54.7708 66.8548 53.4872 65.6245 52.5297 64.5201C53.6057 62.3102 53.0825 59.6852 51.204 58.387C49.1361 56.9607 46.2118 57.6849 44.671 60.0071C43.1347 62.3259 43.5625 65.3637 45.6353 66.7872C47.4222 68.0159 49.8407 67.6433 51.4577 66.0285C52.8099 66.7708 54.2642 67.7022 55.7333 68.8929C56.5176 69.5187 57.2304 70.17 57.8947 70.8307C56.1567 73.6158 54.7936 76.5946 53.8028 79.6963C52.0857 79.6725 50.245 79.535 48.2981 79.222C43.8166 78.5001 40.1536 77.0849 37.4692 75.7712C37.6927 73.4239 36.4293 71.2085 34.3485 70.5575C31.9656 69.8137 29.4147 71.3983 28.6502 74.0963C27.8905 76.7914 29.2026 79.5806 31.5806 80.3272C33.6907 80.9805 35.9204 79.8214 36.9416 77.6789C39.6796 78.006 43.5444 78.8498 47.6797 81.0902C49.5734 82.1132 51.2043 83.26 52.6064 84.4154C52.4989 84.9834 52.3942 85.5649 52.308 86.1431C51.8877 89.0497 51.7724 92.0149 51.9828 94.9813C51.0739 95.3011 50.104 95.5938 49.0725 95.8396C45.7179 96.6377 42.7315 96.7219 40.4209 96.5844C39.7026 94.2916 37.6585 92.7358 35.5001 92.9808C33.0522 93.2554 31.3781 95.7563 31.7642 98.5643C32.145 101.375 34.4443 103.427 36.9009 103.145C39.0541 102.902 40.6064 100.94 40.6894 98.561C42.9026 97.914 45.825 97.3304 49.2817 97.3424C50.314 97.3462 51.2975 97.4066 52.2421 97.4994C52.8514 102.116 54.2533 106.692 56.4767 111.019C55.0277 112.273 53.4053 113.546 51.5719 114.785C48.9545 116.555 46.422 117.917 44.1128 118.976C42.5938 116.97 40.0354 116.223 38.0983 117.328C35.9656 118.545 35.396 121.532 36.8224 124.001C38.2533 126.467 41.1367 127.483 43.2642 126.268C45.162 125.185 45.814 122.704 44.9348 120.427C47.0348 118.974 49.4955 117.485 52.3358 116.109C54.3057 115.154 56.2008 114.383 58.0097 113.741C58.5771 114.678 59.1925 115.596 59.847 116.501C61.4013 118.65 63.1163 120.611 64.9711 122.373C64.0992 124.779 62.6959 127.808 60.3591 130.912C58.3117 133.632 56.1392 135.625 54.2903 137.053C52.2994 135.733 49.794 135.823 48.3287 137.399C46.6623 139.194 46.9807 142.243 49.0482 144.204C51.116 146.165 54.1476 146.296 55.814 144.502C57.2597 142.946 57.2109 140.461 55.8356 138.55C57.3047 136.501 59.1518 134.24 61.4655 131.964C64.1224 129.35 66.7567 127.346 69.0891 125.813C72.0258 127.972 75.2065 129.695 78.5205 130.981C78.2158 132.117 77.8237 133.305 77.2947 134.532C76.2892 136.878 75.0658 138.769 73.8957 140.266C71.7102 139.346 69.2835 139.927 68.1534 141.766C66.8705 143.862 67.7635 146.807 70.1557 148.338C71.6582 149.298 73.3975 149.477 74.8013 148.953C75.6306 148.647 76.3442 148.096 76.8232 147.315C76.9615 147.086 77.0803 146.839 77.1665 146.586C77.8476 144.699 77.0468 142.388 75.1703 140.987C76.0316 139.235 77.134 137.32 78.5745 135.356C79.5053 134.092 80.4526 132.975 81.3845 131.98C83.325 132.58 85.3067 133.027 87.2966 133.323C87.4841 133.353 87.6762 133.38 87.8583 133.402C88.3792 135.785 88.7828 138.847 88.605 142.375C88.4294 145.83 87.7559 148.74 87.0305 150.977C84.6796 150.965 82.6781 152.449 82.3497 154.604C81.9719 157.063 83.914 159.462 86.6874 159.962C89.4491 160.465 92.0042 158.877 92.3772 156.421C92.706 154.286 91.2835 152.195 89.0891 151.358C89.1253 148.866 89.3799 145.903 90.0869 142.647C90.8528 139.148 91.9498 136.174 93.0469 133.774C96.8064 133.794 100.577 133.284 104.229 132.229C104.928 133.434 105.609 134.786 106.207 136.292C107.513 139.57 108.076 142.546 108.311 144.868C106.169 145.832 104.96 148.04 105.541 150.173C106.205 152.591 108.931 154 111.63 153.318C114.326 152.641 115.975 150.125 115.318 147.696C114.742 145.591 112.611 144.249 110.287 144.389C109.31 142.093 108.337 139.247 107.651 135.929C107.322 134.308 107.102 132.771 106.968 131.324C109.654 130.327 112.256 129.024 114.737 127.39C116.526 129.043 118.409 130.977 120.273 133.231C123.049 136.581 125.115 139.831 126.648 142.639C125.087 144.321 124.791 146.788 126.07 148.556C127.547 150.599 130.563 150.938 132.818 149.308C135.064 147.683 135.686 144.712 134.209 142.67C132.936 140.909 130.512 140.414 128.429 141.356C126.224 138.946 123.813 135.957 121.475 132.361C119.9 129.934 118.596 127.586 117.509 125.396C119.952 123.479 122.101 121.321 123.95 118.976C124.405 119.184 124.865 119.41 125.328 119.649C128.393 121.22 130.759 123.059 132.476 124.659C131.555 126.798 132.089 129.274 133.886 130.528C135.94 131.972 138.872 131.268 140.431 128.962C141.984 126.656 141.581 123.614 139.523 122.173C137.699 120.893 135.184 121.305 133.552 123.023C131.579 122.12 128.901 120.537 126.412 117.831C126.101 117.497 125.81 117.161 125.536 116.821C127.46 114.025 128.991 111.001 130.122 107.836C132.446 108.001 135.015 108.344 137.772 108.965C142.013 109.918 145.593 111.294 148.417 112.62C148.209 114.95 149.471 117.144 151.537 117.794C153.923 118.533 156.469 116.951 157.234 114.253C157.994 111.559 156.683 108.771 154.304 108.022C152.244 107.382 150.058 108.477 149.014 110.53C145.879 109.96 142.191 109.036 138.185 107.519C135.596 106.539 133.261 105.459 131.187 104.359C131.548 102.956 131.833 101.535 132.048 100.093C132.39 97.7377 132.533 95.3453 132.458 92.9496C134.886 92.0732 137.815 91.2415 141.192 90.7317C144.446 90.2343 147.393 90.1437 149.889 90.2405C150.596 92.489 152.585 94.0364 154.716 93.8289C157.174 93.5968 158.89 91.1257 158.556 88.3134C158.22 85.4977 155.951 83.4121 153.493 83.6442C151.347 83.8484 149.757 85.7683 149.625 88.127C147.343 88.7171 144.42 89.2241 141.013 89.2232C137.475 89.2235 134.417 88.6915 132.022 88.0562C131.683 85.7807 131.15 83.5151 130.42 81.283C131.407 80.6215 132.492 79.9714 133.662 79.373C136.684 77.8285 139.52 76.9816 141.831 76.5087C143.08 78.5513 145.423 79.5545 147.427 78.7818C149.719 77.8997 150.72 75.0414 149.664 72.3956C148.603 69.7526 145.89 68.324 143.594 69.2094C141.582 69.9816 140.563 72.29 141.066 74.6384C139.107 75.818 136.432 77.1165 133.095 77.9589C131.831 78.2738 130.607 78.4924 129.45 78.6314C128.648 76.6537 127.689 74.7161 126.558 72.8368C128.132 71.4871 129.847 70.1127 131.718 68.7539C135.014 66.3555 138.194 64.4274 141.09 62.8808C142.755 64.5141 145.174 64.9251 146.915 63.7492C148.944 62.3695 149.288 59.3398 147.677 56.9868C146.07 54.6305 143.124 53.8351 141.1 55.2111Z" fill="#FFE1E1"/>
</svg>
