<svg width="209" height="408" viewBox="0 0 209 408" fill="none" xmlns="http://www.w3.org/2000/svg">
<path d="M298.161 111.606C294.639 114.486 294.016 119.743 296.385 124.168C291.436 129.205 285.488 134.621 278.45 139.981C274.53 142.956 270.663 145.622 266.941 147.995C266.398 147.332 265.84 146.671 265.273 146.018C262.513 142.84 259.572 139.915 256.498 137.224C257.037 134.451 257.938 131.246 259.457 127.849C262.071 121.95 265.56 117.631 268.563 114.652C273.275 116.924 278.696 115.917 281.331 112.017C284.305 107.62 282.64 101.222 277.595 97.7365C272.559 94.2426 266.07 94.9599 263.096 99.3561C260.393 103.363 261.536 109.032 265.576 112.651C264.197 116.689 261.576 122.045 256.557 126.631C254.087 128.896 251.566 130.475 249.378 131.589C244.117 127.836 238.534 124.71 232.721 122.239C233.157 118.278 233.889 113.846 235.133 109.1C236.926 102.219 239.314 96.3369 241.713 91.5188C246.703 92.3206 251.447 89.9078 252.912 85.5083C254.599 80.4601 251.293 74.6993 245.551 72.6426C239.809 70.5868 233.778 73.0304 232.097 78.0843C230.635 82.4693 232.93 87.3996 237.329 89.9557C236.327 95.3133 234.71 101.456 232.046 107.997C230.243 112.452 228.235 116.392 226.259 119.779C220.558 117.843 214.702 116.505 208.787 115.78C206.212 110.472 203.804 103.753 202.763 95.8221C201.806 88.3934 202.291 81.943 203.142 76.9655C208.184 76.2049 211.997 72.3323 211.967 67.5946C211.944 62.2191 207.021 57.768 200.956 57.664C194.903 57.5367 190.013 61.7927 190.047 67.1612C190.076 71.8989 193.894 75.9259 198.966 76.8788C199.86 81.7627 200.449 88.2699 199.522 95.7607C198.499 104.026 195.993 110.62 193.714 115.226C186.869 115.571 180.079 116.716 173.479 118.688C172.467 116.14 171.673 113.381 171.191 110.409C170.819 108.045 170.681 105.801 170.699 103.72C175.612 102.092 178.718 97.4971 177.799 92.7683C176.788 87.4735 171.141 83.9961 165.196 85.0067C159.249 86.0164 155.255 91.1195 156.271 96.4208C157.171 101.072 161.645 104.324 166.75 104.356C167.567 106.513 168.308 108.842 168.931 111.331C169.662 114.183 170.175 116.95 170.505 119.635C169.849 119.858 169.209 120.08 168.572 120.323C161.049 123.06 153.844 126.918 147.169 131.903C143.667 129.954 140.034 127.579 136.397 124.664C128.983 118.709 123.881 112.354 120.464 107.22C123.524 103.292 123.705 97.9311 120.618 94.3762C117.06 90.2794 110.515 90.1382 105.995 94.0635C101.466 97.9967 100.679 104.506 104.237 108.602C107.377 112.218 112.847 112.744 117.198 110.118C121.972 113.955 128.043 119.858 133.197 128.338C135.454 132.08 137.196 135.764 138.557 139.287C132.841 144.86 128.094 151.069 124.298 157.727C122.466 157.148 120.653 156.444 118.711 155.444C114.871 153.457 111.881 151.066 109.616 148.882C111.513 143.927 109.894 138.394 105.614 135.973C100.903 133.315 94.7561 135.441 91.8825 140.727C89.018 146.005 90.5088 152.443 95.23 155.095C99.3004 157.384 104.427 156.112 107.597 152.329C110.642 153.659 113.942 155.375 117.322 157.644C119.125 158.835 120.779 160.094 122.331 161.382C119.12 167.701 116.752 174.362 115.207 181.215C111.513 181.499 107.532 181.563 103.291 181.271C93.5263 180.596 85.3897 178.273 79.375 175.977C79.4138 170.894 76.2823 166.384 71.6892 165.392C66.4296 164.261 61.247 168.161 60.1119 174.102C58.9867 180.037 62.3307 185.769 67.5803 186.907C72.2368 187.898 76.8095 184.974 78.6005 180.175C84.5447 180.343 93.007 181.4 102.314 185.403C106.575 187.229 110.295 189.373 113.524 191.58C113.4 192.82 113.285 194.089 113.208 195.347C112.852 201.669 113.162 208.058 114.172 214.385C112.28 215.249 110.251 216.067 108.081 216.796C101.024 219.164 94.623 219.928 89.6329 220.084C87.6582 215.302 82.9737 212.361 78.3823 213.308C73.1744 214.375 70.0482 220.071 71.406 226.025C72.753 231.984 78.0791 235.94 83.3044 234.856C87.885 233.915 90.8508 229.399 90.5815 224.275C95.2149 222.454 101.384 220.631 108.813 219.982C111.032 219.788 113.156 219.726 115.203 219.741C117.381 229.534 121.254 239.084 126.845 247.938C123.968 250.915 120.721 253.964 117.015 256.982C111.725 261.293 106.54 264.71 101.778 267.434C98.1368 263.426 92.4994 262.321 88.5454 265.072C84.1921 268.1 83.5303 274.624 87.0595 279.647C90.5977 284.662 96.984 286.279 101.327 283.256C105.2 280.561 106.134 275.107 103.817 270.391C108.055 266.861 113.062 263.183 118.906 259.675C122.959 257.241 126.885 255.215 130.651 253.483C132.046 255.385 133.541 257.235 135.118 259.05C138.862 263.361 142.915 267.236 147.232 270.657C145.811 275.993 143.366 282.769 138.929 289.888C135.042 296.129 130.749 300.832 127.046 304.258C122.52 301.813 117.154 302.496 114.302 306.166C111.059 310.344 112.317 316.828 117.128 320.634C121.94 324.441 128.478 324.131 131.721 319.952C134.534 316.33 133.962 311.005 130.647 307.17C133.418 302.485 136.961 297.269 141.504 291.931C146.721 285.802 152.004 280.985 156.727 277.238C163.443 281.3 170.601 284.378 177.963 286.493C177.522 288.991 176.903 291.617 175.997 294.355C174.278 299.587 172.006 303.887 169.773 307.329C164.905 305.781 159.8 307.502 157.718 311.671C155.356 316.421 157.829 322.57 163.256 325.389C166.665 327.156 170.436 327.201 173.353 325.801C175.078 324.983 176.507 323.66 177.389 321.891C177.643 321.371 177.852 320.819 177.99 320.258C179.098 316.075 176.943 311.269 172.647 308.628C174.168 304.699 176.177 300.372 178.902 295.874C180.664 292.978 182.489 290.395 184.304 288.077C188.586 288.987 192.928 289.56 197.259 289.807C197.668 289.835 198.085 289.854 198.481 289.867C200.048 294.882 201.492 301.376 201.774 308.986C202.046 316.438 201.147 322.817 200.009 327.759C194.956 328.193 190.935 331.77 190.635 336.46C190.285 341.813 194.909 346.584 200.962 347.117C206.991 347.658 212.182 343.749 212.521 338.404C212.826 333.756 209.376 329.544 204.504 328.176C204.113 322.82 204.102 316.407 205.009 309.28C205.996 301.619 207.793 295.02 209.699 289.652C217.78 288.961 225.785 287.13 233.435 284.153C235.162 286.603 236.879 289.374 238.448 292.489C241.87 299.271 243.641 305.552 244.582 310.49C240.16 312.979 237.978 317.955 239.629 322.419C241.511 327.482 247.631 329.974 253.304 327.985C258.967 326.003 262.038 320.28 260.168 315.195C258.535 310.787 253.703 308.322 248.736 309.077C246.207 304.338 243.58 298.417 241.483 291.428C240.47 288.012 239.709 284.756 239.147 281.675C244.731 279.011 250.077 275.706 255.1 271.714C259.254 274.911 263.663 278.697 268.093 283.171C274.687 289.823 279.739 296.396 283.561 302.125C280.523 306.042 280.351 311.395 283.431 314.942C286.988 319.038 293.533 319.179 298.071 315.237C302.591 311.312 303.37 304.812 299.812 300.716C296.744 297.183 291.443 296.593 287.146 299.023C281.954 294.281 276.212 288.333 270.513 281.069C266.671 276.167 263.428 271.38 260.681 266.889C265.568 262.299 269.781 257.245 273.312 251.849C274.328 252.208 275.359 252.602 276.4 253.025C283.279 255.8 288.709 259.287 292.699 262.387C291.123 267.158 292.736 272.371 296.834 274.71C301.517 277.411 307.684 275.327 310.6 270.071C313.502 264.818 312.064 258.366 307.371 255.674C303.212 253.281 297.887 254.657 294.704 258.664C290.294 257.11 284.242 254.235 278.386 248.912C277.656 248.256 276.966 247.591 276.314 246.914C279.921 240.535 282.641 233.744 284.477 226.729C289.5 226.629 295.085 226.863 301.126 227.658C310.417 228.877 318.366 231.132 324.684 233.427C324.676 238.472 327.799 242.935 332.361 243.927C337.627 245.048 342.799 241.154 343.934 235.213C345.062 229.281 341.72 223.552 336.467 222.409C331.922 221.436 327.43 224.214 325.572 228.825C318.73 228.212 310.632 226.948 301.741 224.475C295.994 222.875 290.773 221.012 286.11 219.055C286.621 215.974 286.967 212.868 287.157 209.73C287.449 204.606 287.305 199.442 286.696 194.313C291.746 191.958 297.884 189.601 305.042 187.847C311.94 186.144 318.256 185.374 323.635 185.095C325.577 189.784 330.143 192.718 334.681 191.856C339.919 190.878 343.141 185.238 341.895 179.265C340.643 173.286 335.377 169.251 330.139 170.229C325.566 171.087 322.511 175.519 322.671 180.609C317.879 182.321 311.695 183.98 304.374 184.643C296.774 185.334 290.102 184.789 284.838 183.893C283.68 179.074 282.109 174.314 280.122 169.664C282.117 168.052 284.325 166.444 286.727 164.931C292.93 161.025 298.863 158.653 303.74 157.187C306.808 161.328 312.029 163.025 316.192 160.975C320.95 158.633 322.563 152.301 319.795 146.827C317.017 141.36 310.921 138.823 306.154 141.172C301.976 143.223 300.222 148.377 301.744 153.321C297.756 156.236 292.253 159.546 285.244 162.006C282.585 162.929 279.997 163.637 277.537 164.161C275.443 160.072 273.018 156.099 270.235 152.285C273.362 149.08 276.788 145.795 280.552 142.512C287.183 136.72 293.653 131.96 299.584 128.074C303.468 131.255 308.742 131.666 312.261 128.801C316.361 125.443 316.532 118.871 312.626 114.134C308.73 109.389 302.252 108.257 298.161 111.606Z" fill="#FFE1E1"/>
</svg>
