<svg width="877" height="944" viewBox="0 0 877 944" fill="none" xmlns="http://www.w3.org/2000/svg">
<g opacity="0.62">
<path d="M374.803 765.131C340.822 780.688 305.941 788.901 267.624 783.018C224.915 776.455 185.438 738.734 161.83 700.273C153.059 685.988 145.717 669.894 145.228 652.93C144.113 613.741 177.27 607.581 206.177 612.382C222.471 615.081 237.799 622.387 252.955 629.625C278.117 641.65 306.944 646.683 329.998 663.984C337.735 669.807 343.758 676.978 352.544 681.046C366.211 687.378 381.454 689.898 395.429 695.58C407.362 700.458 420.922 708.807 421.989 722.637C423.068 736.822 410.335 746.579 398.972 752.857C390.931 757.327 382.899 761.44 374.803 765.131Z" fill="url(#paint0_linear)"/>
<path d="M207.597 267.818C257.886 171.518 373.673 127.736 472.492 157.643C520.144 172.074 561.679 205.209 600.296 239.846C634.336 270.375 667.625 303.486 692.346 343.75C709.225 371.234 722.343 404.56 732.192 435.8C746.921 482.578 741.448 544.158 685.574 542.657C672.465 542.307 660.801 537.743 648.272 533.875C638.136 530.738 628.644 533.453 618.274 532.211C592.172 529.092 566.563 519.961 542.166 508.968C492.446 486.539 446.171 454.931 395.326 435.666C353.66 419.902 309.916 412.953 266.452 415.193C248.115 416.141 228.945 418.588 211.859 410.425C169.743 390.287 183.353 329.179 195.88 294.543C199.195 285.318 203.111 276.387 207.597 267.818Z" fill="url(#paint1_linear)"/>
<path d="M658.481 257.821C668.642 266.749 707.707 290.515 706.126 260.257C705.723 252.719 702.071 245.575 697.438 240.287C692.136 234.217 686.418 231.19 682.093 224.018C676.81 215.363 670.93 207.277 664.53 199.865C651.425 184.427 636.422 170.318 619.084 164.601C606.924 160.597 587.02 162.833 582.679 179.821C576.352 204.552 611.631 207.133 622.959 215.416C633.708 223.255 640.529 237.348 649.409 248.363C652.215 251.836 655.252 255.002 658.481 257.821Z" fill="url(#paint2_linear)"/>
<path d="M481.583 237.619C502.575 249.536 519.059 268.175 538.488 282.856C570.834 307.295 612.863 310.4 649.064 326.663C685.977 343.256 714.973 370.562 730.242 411.338C749.964 463.968 756.282 527.474 747.151 583.155C737.093 644.446 705.733 686.48 657.455 715.976C609.204 745.455 554.448 760.936 499.086 766.488C493.744 767.029 488.402 767.453 483.031 767.778C362.393 775.009 198.18 736.758 146.229 595.979C145.753 594.693 145.293 593.406 144.83 592.101C139.386 576.398 135.649 560.1 133.698 543.555C126.648 484.909 131.051 419.526 145.555 363.417C155.308 325.644 179.994 292.825 206.819 268.947C244.509 235.401 292.797 224.77 341.178 218.399C377.003 213.682 417.457 210.494 452.69 223.871C462.595 227.665 472.253 232.26 481.583 237.619Z" fill="url(#paint3_linear)"/>
</g>
<path d="M417.648 450.207C419.169 454.05 423.192 455.917 426.634 454.378L440.807 448.037C448.023 444.81 455.882 443.468 463.76 444.215C466.109 444.438 468.53 443.994 470.793 442.777C476.789 439.552 479.577 431.701 477.24 424.625C474.497 416.317 466.088 412.158 458.933 415.359C456.994 416.226 455.355 417.54 454.069 419.154C448.905 425.628 442.586 430.861 435.297 434.122L421.126 440.461C417.684 442 416.127 446.364 417.648 450.207Z" fill="#FB4C47"/>
<path d="M351.085 533.162C348.183 531.815 344.921 533.274 343.798 536.421L339.174 549.38C336.82 555.976 333.1 561.846 328.259 566.464C326.815 567.841 325.686 569.667 325.057 571.86C323.389 577.67 325.99 584.216 331.071 586.994C337.036 590.256 343.991 587.361 346.326 580.819C346.958 579.047 347.183 577.197 347.052 575.393C346.522 568.152 347.304 560.918 349.682 554.254L354.306 541.298C355.428 538.15 353.986 534.508 351.085 533.162Z" fill="#C63F3B"/>
<path d="M392.793 416.288C395.83 417.697 399.243 416.17 400.418 412.877L405.257 399.317C407.721 392.414 411.613 386.272 416.679 381.44C418.189 379.999 419.372 378.087 420.03 375.793C421.775 369.713 419.053 362.863 413.736 359.956C407.495 356.543 400.216 359.573 397.773 366.418C397.112 368.272 396.876 370.208 397.013 372.096C397.568 379.674 396.749 387.243 394.261 394.217L389.423 407.774C388.249 411.068 389.757 414.879 392.793 416.288Z" fill="#C63F3B"/>
<path d="M393.106 518.996C389.665 520.535 388.107 524.899 389.628 528.742L395.892 544.567C399.081 552.623 400.577 561.322 400.174 569.968C400.054 572.546 400.543 575.227 401.729 577.761C404.872 584.475 412.111 587.819 418.465 585.495C425.924 582.767 429.412 573.655 426.25 565.666C425.393 563.502 424.14 561.652 422.628 560.179C416.558 554.268 411.576 547.127 408.355 538.989L402.092 523.166C400.572 519.323 396.548 517.456 393.106 518.996Z" fill="#FB4C47"/>
<path d="M422.626 560.18C416.556 554.269 411.575 547.128 408.353 538.99L402.09 523.167C400.569 519.324 396.546 517.456 393.104 518.996C389.662 520.536 388.105 524.899 389.626 528.742L395.889 544.565C399.11 552.704 404.092 559.844 410.162 565.756C411.674 567.228 412.927 569.079 413.784 571.243C415.821 576.39 415.095 582 412.328 586.072C414.356 586.398 416.454 586.231 418.463 585.496C425.922 582.768 429.41 573.656 426.248 565.667C425.391 563.503 424.138 561.653 422.626 560.18Z" fill="#C63F3B"/>
<path d="M315.78 461.953C327.023 456.924 332.11 442.67 327.141 430.116C322.172 417.562 309.029 411.462 297.786 416.492C286.542 421.522 281.455 435.776 286.424 448.33C291.393 460.884 304.536 466.983 315.78 461.953Z" fill="#FF8F8C"/>
<path d="M297.79 416.491C295.616 417.464 293.675 418.784 291.989 420.368C301.347 419.642 310.673 425.565 314.681 435.691C318.689 445.816 316.151 457.046 309.121 463.651C311.364 463.477 313.609 462.925 315.784 461.952C327.028 456.923 332.114 442.669 327.145 430.115C322.176 417.561 309.033 411.461 297.79 416.491Z" fill="#FB4C47"/>
<path d="M403.043 544.106C439.756 527.683 456.365 481.139 440.14 440.148C423.915 399.156 381.001 379.24 344.288 395.663C307.575 412.085 290.966 458.629 307.191 499.62C323.416 540.612 366.331 560.528 403.043 544.106Z" fill="#FB4C47"/>
<path d="M344.289 395.662C342.187 396.602 340.154 397.646 338.186 398.777C373.365 387.17 412.381 407.078 427.677 445.722C442.973 484.367 429.084 527.941 396.683 546.565C398.819 545.86 400.943 545.045 403.044 544.105C439.758 527.682 456.366 481.138 440.141 440.147C423.916 399.155 381.002 379.239 344.289 395.662Z" fill="#C63F3B"/>
<path d="M394.521 448.438C401.978 445.102 405.352 435.648 402.056 427.321C398.76 418.995 390.043 414.949 382.586 418.285C375.128 421.621 371.755 431.076 375.05 439.402C378.346 447.728 387.063 451.774 394.521 448.438Z" fill="#C63F3B"/>
<path d="M382.584 418.286C380.336 419.292 378.461 420.857 377.026 422.776C382.342 423.359 387.288 427.082 389.59 432.897C391.892 438.713 390.937 445.076 387.613 449.523C389.908 449.775 392.27 449.444 394.519 448.438C401.977 445.102 405.35 435.648 402.055 427.322C398.759 418.995 390.042 414.95 382.584 418.286Z" fill="white"/>
<path d="M365.421 519.714C370.469 517.455 372.753 511.056 370.522 505.419C368.291 499.783 362.39 497.044 357.342 499.302C352.294 501.56 350.01 507.96 352.241 513.597C354.472 519.233 360.373 521.972 365.421 519.714Z" fill="white"/>
<path d="M446.187 518.617C453.07 515.538 456.184 506.811 453.142 499.125C450.1 491.439 442.053 487.705 435.17 490.784C428.286 493.863 425.172 502.59 428.214 510.276C431.256 517.962 439.303 521.697 446.187 518.617Z" fill="#FB4C47"/>
<path d="M435.169 490.785C432.898 491.8 431.04 493.434 429.676 495.439C434.353 496.179 438.639 499.551 440.678 504.702C442.716 509.852 441.987 515.467 439.215 519.54C441.518 519.905 443.915 519.635 446.186 518.619C453.07 515.539 456.184 506.812 453.142 499.126C450.1 491.441 442.053 487.705 435.169 490.785Z" fill="#C63F3B"/>
<path d="M329.676 489.56C331.197 493.403 329.64 497.767 326.198 499.307L312.025 505.647C304.809 508.875 298.412 513.91 293.406 520.42C291.914 522.362 289.923 523.891 287.522 524.76C281.162 527.064 273.932 523.694 270.806 516.97C267.137 509.077 270.219 499.777 277.375 496.576C279.313 495.709 281.343 495.382 283.327 495.533C291.292 496.135 299.23 494.99 306.519 491.729L320.69 485.39C324.131 483.85 328.155 485.718 329.676 489.56Z" fill="#C63F3B"/>
<path d="M354.232 420.771C357.673 419.231 359.231 414.868 357.71 411.025L351.446 395.2C348.257 387.143 346.761 378.445 347.164 369.798C347.284 367.22 346.795 364.54 345.609 362.006C342.466 355.292 335.227 351.947 328.873 354.271C321.414 357 317.926 366.111 321.088 374.1C321.945 376.264 323.198 378.115 324.71 379.588C330.78 385.499 335.762 392.639 338.983 400.778L345.246 416.601C346.766 420.443 350.79 422.311 354.232 420.771Z" fill="#FB4C47"/>
<path d="M345.61 362.006C342.467 355.292 335.228 351.947 328.874 354.271C326.22 355.242 324.073 357.023 322.545 359.271C326.932 359.976 330.996 362.991 333.146 367.582C334.332 370.115 334.821 372.796 334.7 375.374C334.297 384.02 335.794 392.719 338.982 400.775L345.246 416.6C346.767 420.443 350.79 422.311 354.232 420.771C357.675 419.231 359.232 414.868 357.71 411.025L351.447 395.2C348.258 387.143 346.761 378.445 347.165 369.798C347.285 367.22 346.797 364.54 345.61 362.006Z" fill="#C63F3B"/>
<path d="M460.36 415.775C458.408 416.601 456.747 417.881 455.433 419.466C455.201 419.746 454.963 420.022 454.727 420.297C459.69 421.158 464.171 424.989 465.956 430.714C467.482 435.61 466.575 440.823 463.889 444.609C464.161 444.635 464.433 444.658 464.705 444.689C467.05 444.959 469.478 444.565 471.761 443.395C477.811 440.296 480.73 432.512 478.511 425.398C475.907 417.046 467.568 412.723 460.36 415.775Z" fill="#C63F3B"/>
<g opacity="0.63">
<path d="M517.123 591.617C518.259 593.356 520.43 593.803 521.973 592.614L528.325 587.717C531.558 585.224 535.299 583.598 539.258 583.015C540.439 582.842 541.588 582.325 542.581 581.441C545.214 579.098 545.801 574.827 543.939 571.567C541.753 567.74 537.189 566.678 533.982 569.15C533.114 569.82 532.437 570.677 531.965 571.642C530.069 575.511 527.478 578.9 524.211 581.418L517.86 586.314C516.318 587.502 515.988 589.877 517.123 591.617Z" fill="#FFC700"/>
<path d="M487.133 631.948C485.567 631.626 484.105 632.753 483.867 634.465L482.888 641.516C482.389 645.106 481.144 648.497 479.22 651.398C478.647 652.262 478.273 653.314 478.183 654.489C477.944 657.601 479.883 660.563 482.667 661.337C485.935 662.246 489.074 659.952 489.569 656.392C489.702 655.428 489.628 654.474 489.382 653.586C488.394 650.025 488.054 646.307 488.558 642.681L489.537 635.631C489.775 633.919 488.698 632.27 487.133 631.948Z" fill="#D09700"/>
<path d="M495.972 568.353C497.61 568.69 499.14 567.511 499.389 565.719L500.414 558.34C500.936 554.584 502.239 551.036 504.252 548C504.852 547.095 505.243 545.995 505.337 544.765C505.588 541.509 503.558 538.409 500.645 537.599C497.225 536.648 493.941 539.049 493.423 542.774C493.283 543.783 493.361 544.781 493.618 545.71C494.652 549.437 495.008 553.327 494.481 557.122L493.456 564.499C493.207 566.291 494.334 568.016 495.972 568.353Z" fill="#D09700"/>
<path d="M506.427 619.752C504.885 620.941 504.555 623.316 505.691 625.056L510.367 632.22C512.748 635.867 514.358 640.042 515.027 644.421C515.226 645.727 515.736 647.01 516.576 648.135C518.799 651.115 522.704 651.911 525.603 649.976C529.008 647.703 529.813 642.716 527.452 639.1C526.813 638.12 526.009 637.345 525.116 636.792C521.53 634.568 518.357 631.598 515.952 627.913L511.276 620.75C510.141 619.01 507.97 618.563 506.427 619.752Z" fill="#FFC700"/>
<path d="M525.116 636.79C521.53 634.567 518.357 631.596 515.952 627.911L511.276 620.748C510.141 619.008 507.97 618.562 506.427 619.751C504.884 620.94 504.555 623.314 505.69 625.054L510.366 632.217C512.771 635.902 515.943 638.873 519.53 641.096C520.423 641.65 521.227 642.424 521.866 643.404C523.387 645.734 523.592 648.632 522.636 651.007C523.669 650.924 524.687 650.586 525.603 649.974C529.008 647.702 529.813 642.715 527.452 639.098C526.813 638.118 526.009 637.344 525.116 636.79Z" fill="#D09700"/>
<path d="M462.582 600.576C467.621 596.692 468.699 588.936 464.989 583.253C461.279 577.569 454.187 576.111 449.148 579.995C444.109 583.88 443.032 591.636 446.742 597.319C450.451 603.002 457.543 604.461 462.582 600.576Z" fill="#D09700"/>
<path d="M449.148 579.995C448.174 580.746 447.35 581.643 446.677 582.641C451.218 581.141 456.411 582.974 459.403 587.558C462.395 592.142 462.271 598.074 459.467 602.236C460.556 601.876 461.608 601.327 462.582 600.576C467.621 596.691 468.699 588.935 464.989 583.252C461.279 577.569 454.187 576.11 449.148 579.995Z" fill="#FFC700"/>
<path d="M513.846 631.12C530.299 618.437 533.818 593.111 521.705 574.553C509.592 555.995 486.434 551.233 469.981 563.917C453.527 576.6 450.009 601.926 462.122 620.484C474.235 639.042 497.392 643.804 513.846 631.12Z" fill="#FFC700"/>
<path d="M469.987 563.917C469.045 564.643 468.147 565.413 467.29 566.218C483.471 556.133 504.706 561.364 516.125 578.859C527.544 596.354 525.069 619.863 510.962 633.125C511.945 632.513 512.91 631.846 513.852 631.12C530.306 618.437 533.824 593.111 521.711 574.553C509.598 555.995 486.44 551.233 469.987 563.917Z" fill="#D09700"/>
<path d="M495.928 586.956C497.145 586.018 497.405 584.145 496.51 582.773C495.614 581.4 493.901 581.048 492.684 581.986C491.468 582.924 491.207 584.797 492.103 586.169C492.999 587.542 494.712 587.894 495.928 586.956Z" fill="white"/>
<path d="M492.846 623.474C495.109 621.73 495.593 618.247 493.927 615.695C492.261 613.143 489.077 612.488 486.814 614.232C484.552 615.977 484.068 619.459 485.733 622.011C487.399 624.564 490.584 625.218 492.846 623.474Z" fill="white"/>
<path d="M476.399 599.702C479.863 597.031 480.604 591.699 478.054 587.792C475.503 583.885 470.628 582.882 467.164 585.553C463.7 588.223 462.959 593.555 465.509 597.462C468.059 601.369 472.935 602.372 476.399 599.702Z" fill="white"/>
<path d="M532.558 613.116C535.643 610.738 536.302 605.989 534.031 602.509C531.76 599.03 527.418 598.137 524.332 600.515C521.247 602.893 520.588 607.642 522.859 611.122C525.13 614.602 529.472 615.494 532.558 613.116Z" fill="#FFC700"/>
<path d="M524.334 600.515C523.316 601.3 522.564 602.344 522.092 603.513C524.473 603.316 526.925 604.484 528.447 606.816C529.969 609.148 530.173 612.048 529.215 614.425C530.387 614.328 531.541 613.901 532.559 613.117C535.645 610.738 536.304 605.99 534.033 602.51C531.762 599.03 527.419 598.137 524.334 600.515Z" fill="#D09700"/>
<path d="M472.203 612.715C473.339 614.454 473.009 616.829 471.466 618.018L465.114 622.914C461.88 625.407 459.232 628.706 457.417 632.574C456.876 633.728 456.048 634.736 454.951 635.462C452.046 637.388 448.143 636.579 445.927 633.591C443.326 630.084 443.913 625.052 447.119 622.58C447.988 621.911 448.956 621.501 449.95 621.335C453.937 620.669 457.736 619.132 461.003 616.613L467.354 611.717C468.896 610.528 471.067 610.975 472.203 612.715Z" fill="#D09700"/>
<path d="M477.404 575.285C478.946 574.096 479.276 571.722 478.141 569.982L473.464 562.818C471.084 559.17 469.473 554.996 468.804 550.617C468.605 549.311 468.095 548.028 467.256 546.903C465.032 543.922 461.128 543.127 458.228 545.062C454.824 547.335 454.018 552.321 456.379 555.938C457.019 556.918 457.822 557.692 458.716 558.246C462.302 560.469 465.474 563.44 467.879 567.125L472.555 574.288C473.69 576.028 475.861 576.474 477.404 575.285Z" fill="#FFC700"/>
<path d="M467.254 546.903C465.031 543.923 461.126 543.127 458.226 545.063C457.015 545.871 456.135 547.024 455.607 548.335C457.841 548.156 460.147 549.171 461.668 551.21C462.507 552.334 463.017 553.617 463.216 554.923C463.885 559.302 465.496 563.477 467.877 567.124L472.553 574.288C473.688 576.028 475.86 576.475 477.402 575.286C478.945 574.096 479.275 571.722 478.139 569.982L473.463 562.818C471.082 559.171 469.471 554.996 468.803 550.617C468.603 549.311 468.093 548.028 467.254 546.903Z" fill="#D09700"/>
</g>
<path d="M562.419 508.707C560.264 508.116 558.142 509.543 557.681 511.895L555.779 521.58C554.811 526.509 552.819 531.096 549.919 534.939C549.055 536.085 548.454 537.509 548.239 539.129C547.668 543.421 550.143 547.707 553.959 549.037C558.44 550.599 562.984 547.708 563.945 542.819C564.205 541.495 564.174 540.165 563.899 538.912C562.795 533.883 562.605 528.698 563.583 523.718L565.485 514.035C565.947 511.684 564.574 509.298 562.419 508.707Z" fill="#1DB776"/>
<path d="M548.416 444.062C549.946 443.033 550.384 440.804 549.394 439.084L545.318 432C543.242 428.393 541.927 424.336 541.519 420.144C541.398 418.894 540.979 417.647 540.239 416.528C538.279 413.563 534.605 412.562 531.744 414.213C528.386 416.152 527.36 420.826 529.418 424.402C529.975 425.371 530.699 426.156 531.521 426.737C534.817 429.07 537.681 432.086 539.778 435.729L543.853 442.812C544.844 444.532 546.887 445.092 548.416 444.062Z" fill="#128E5A"/>
<path d="M585.18 507.956C583.579 509.033 583.121 511.366 584.157 513.166L588.423 520.579C590.595 524.353 591.97 528.598 592.398 532.985C592.525 534.293 592.963 535.598 593.737 536.769C595.789 539.871 599.633 540.919 602.626 539.191C606.14 537.163 607.215 532.271 605.061 528.529C604.478 527.515 603.72 526.694 602.861 526.086C599.411 523.644 596.414 520.489 594.22 516.677L589.955 509.265C588.919 507.465 586.781 506.879 585.18 507.956Z" fill="#128E5A"/>
<path d="M540.777 471.103C541.239 468.751 539.866 466.366 537.711 465.775L528.837 463.341C524.319 462.103 520.077 459.749 516.48 456.422C515.407 455.43 514.091 454.72 512.61 454.426C508.686 453.647 504.876 456.22 503.8 460.375C502.536 465.252 505.325 470.357 509.806 471.585C511.019 471.918 512.227 471.931 513.357 471.672C517.892 470.634 522.602 470.606 527.166 471.858L536.039 474.291C538.194 474.882 540.315 473.454 540.777 471.103Z" fill="#1DB776"/>
<path d="M513.359 471.672C517.894 470.634 522.604 470.607 527.168 471.858L536.041 474.291C538.196 474.882 540.317 473.455 540.779 471.103C541.241 468.751 539.869 466.365 537.713 465.775L528.84 463.342C524.276 462.09 519.567 462.117 515.031 463.156C513.902 463.415 512.693 463.402 511.48 463.069C508.594 462.278 506.411 459.877 505.56 456.965C504.756 457.906 504.142 459.061 503.802 460.375C502.538 465.252 505.327 470.357 509.807 471.585C511.021 471.918 512.229 471.931 513.359 471.672Z" fill="#128E5A"/>
<path d="M590.675 451.294C589.167 458.976 593.651 466.769 600.691 468.699C607.731 470.63 614.661 465.967 616.17 458.284C617.679 450.602 613.194 442.809 606.154 440.879C599.114 438.949 592.184 443.612 590.675 451.294Z" fill="#128E5A"/>
<path d="M616.172 458.286C616.464 456.801 616.529 455.311 616.398 453.86C613.65 459.007 608.044 461.742 602.366 460.185C596.687 458.628 592.674 453.256 592.125 447.205C591.466 448.439 590.97 449.81 590.678 451.296C589.169 458.978 593.653 466.771 600.693 468.701C607.734 470.631 614.664 465.968 616.172 458.286Z" fill="#1DB776"/>
<path d="M526.695 467.243C521.769 492.328 536.411 517.772 559.398 524.075C582.386 530.378 605.014 515.153 609.94 490.068C614.866 464.983 600.225 439.539 577.237 433.236C554.25 426.933 531.621 442.159 526.695 467.243Z" fill="#1DB776"/>
<path d="M609.949 490.067C610.231 488.631 610.446 487.194 610.601 485.759C604.1 508.307 582.75 521.5 561.079 515.558C539.408 509.616 525.157 486.662 527.723 463.035C527.329 464.404 526.986 465.807 526.704 467.243C521.777 492.327 536.419 517.772 559.407 524.075C582.394 530.378 605.023 515.152 609.949 490.067Z" fill="#128E5A"/>
<path d="M570.744 497.272C569.743 502.367 572.717 507.535 577.386 508.816C582.056 510.096 586.652 507.003 587.653 501.908C588.653 496.812 585.679 491.644 581.01 490.364C576.341 489.083 571.744 492.176 570.744 497.272Z" fill="#128E5A"/>
<path d="M587.661 501.907C587.963 500.37 587.901 498.828 587.543 497.387C585.553 499.951 582.329 501.192 579.067 500.298C575.806 499.404 573.374 496.612 572.543 493.274C571.684 494.381 571.054 495.734 570.752 497.27C569.752 502.366 572.726 507.534 577.395 508.814C582.064 510.095 586.661 507.002 587.661 501.907Z" fill="white"/>
<path d="M549.525 456.391C548.847 459.841 550.861 463.34 554.022 464.206C557.183 465.073 560.294 462.979 560.972 459.53C561.649 456.081 559.636 452.582 556.475 451.715C553.314 450.848 550.202 452.942 549.525 456.391Z" fill="white"/>
<path d="M523.576 498.95C522.652 503.654 525.398 508.426 529.708 509.608C534.019 510.79 538.262 507.934 539.186 503.23C540.11 498.526 537.364 493.755 533.054 492.573C528.743 491.391 524.499 494.246 523.576 498.95Z" fill="#1DB776"/>
<path d="M539.19 503.229C539.495 501.677 539.398 500.119 538.98 498.683C537.13 500.859 534.273 501.881 531.384 501.089C528.496 500.297 526.312 497.892 525.462 494.977C524.552 496.048 523.884 497.397 523.579 498.949C522.655 503.653 525.401 508.424 529.712 509.606C534.022 510.788 538.266 507.933 539.19 503.229Z" fill="#128E5A"/>
<path d="M574.222 448.601C572.067 448.01 570.694 445.625 571.156 443.273L573.057 433.589C574.026 428.659 573.946 423.505 572.776 418.545C572.427 417.067 572.418 415.476 572.829 413.909C573.916 409.759 577.735 407.199 581.657 407.991C586.262 408.92 589.264 413.88 588.304 418.769C588.044 420.094 587.521 421.271 586.807 422.253C583.942 426.194 581.839 430.75 580.861 435.731L578.96 445.413C578.498 447.765 576.377 449.192 574.222 448.601Z" fill="#128E5A"/>
<path d="M595.863 486.208C595.401 488.559 596.774 490.945 598.929 491.536L607.803 493.969C612.321 495.208 616.563 497.562 620.16 500.888C621.232 501.88 622.549 502.591 624.029 502.885C627.953 503.664 631.764 501.09 632.84 496.936C634.103 492.058 631.315 486.954 626.834 485.725C625.621 485.392 624.413 485.38 623.283 485.638C618.748 486.677 614.038 486.704 609.474 485.453L600.601 483.02C598.446 482.429 596.325 483.856 595.863 486.208Z" fill="#1DB776"/>
<path d="M624.028 502.883C627.952 503.662 631.762 501.088 632.839 496.934C633.288 495.198 633.222 493.435 632.752 491.827C631.013 493.863 628.384 494.899 625.7 494.367C624.219 494.073 622.903 493.362 621.831 492.37C618.233 489.043 613.992 486.689 609.474 485.451L600.6 483.017C598.445 482.427 596.323 483.854 595.861 486.206C595.399 488.558 596.772 490.943 598.927 491.534L607.802 493.967C612.32 495.206 616.561 497.56 620.158 500.886C621.231 501.878 622.547 502.589 624.028 502.883Z" fill="#128E5A"/>
<path d="M563.943 542.825C564.203 541.502 564.172 540.173 563.897 538.92C563.848 538.699 563.804 538.476 563.759 538.254C561.803 540.576 558.703 541.598 555.633 540.528C553.008 539.613 551.018 537.298 550.218 534.546C550.12 534.68 550.024 534.816 549.924 534.949C549.06 536.095 548.459 537.518 548.244 539.137C547.674 543.427 550.147 547.711 553.962 549.04C558.44 550.602 562.983 547.712 563.943 542.825Z" fill="#128E5A"/>
<defs>
<linearGradient id="paint0_linear" x1="142.53" y1="658.492" x2="194.029" y2="793.922" gradientUnits="userSpaceOnUse">
<stop stop-color="#FFD8D8"/>
<stop offset="1" stop-color="#FFF8F8"/>
</linearGradient>
<linearGradient id="paint1_linear" x1="725.241" y1="323.758" x2="303.597" y2="120.621" gradientUnits="userSpaceOnUse">
<stop stop-color="#FFF8F8"/>
<stop offset="1" stop-color="#FFCFCF"/>
</linearGradient>
<linearGradient id="paint2_linear" x1="707.049" y1="259.675" x2="558.582" y2="214.384" gradientUnits="userSpaceOnUse">
<stop stop-color="#FFD7D7"/>
<stop offset="1" stop-color="#FFF9F9"/>
</linearGradient>
<linearGradient id="paint3_linear" x1="708.469" y1="694.717" x2="94.2435" y2="426.346" gradientUnits="userSpaceOnUse">
<stop stop-color="#FFCFCF"/>
<stop offset="1" stop-color="#FFF8F8"/>
</linearGradient>
</defs>
</svg>
