<svg width="822" height="707" viewBox="0 0 822 707" fill="none" xmlns="http://www.w3.org/2000/svg">
<g opacity="0.67">
<path d="M245.496 318.633L231.629 323.895L245.239 314.155C245.128 312.668 244.99 311.171 244.824 309.661L237.502 311.265L244.432 306.38C242.847 294.74 239.318 280.132 234.477 265.222L207.485 277.084L233.278 261.598C226.505 241.565 217.456 221.385 207.636 207.467L193.129 219.127L204.696 203.516C195.759 192.199 186.322 186.438 177.468 190.892C166.71 196.305 163.626 222.55 166.939 254.198L174.205 254.051L167.1 255.669C168.628 269.519 171.366 284.343 175.207 298.879L202.917 288.23L176.461 303.478C182.313 324.253 190.421 344.135 200.474 359.37L211.4 346.93L202.523 362.372C210.988 374.35 220.744 383.035 231.629 386.311C231.629 386.311 247.033 356.836 245.496 318.633Z" fill="#03673D"/>
<path d="M233.216 386.311C233.216 386.311 248.62 356.836 247.084 318.633L233.216 323.895L246.826 314.155C246.715 312.668 246.577 311.171 246.412 309.661L239.089 311.265L246.019 306.38C244.434 294.74 240.905 280.132 236.064 265.223L209.073 277.084L234.865 261.6C228.092 241.565 219.043 221.385 209.223 207.468L194.716 219.129L206.283 203.516C197.346 192.199 187.909 186.438 179.055 190.892C179.055 190.892 219.333 300.227 232.433 386.05C232.695 386.135 232.954 386.231 233.216 386.311Z" fill="#04AD66"/>
<path d="M224.555 410.333L214.293 413.06L223.665 407.279C222.701 404.143 221.55 400.873 220.166 397.456C217.316 390.427 213.239 382.384 208.515 374.607L199.284 382.595L205.787 370.254C191.469 348.155 172.648 330.288 163.394 347.672C159.591 354.817 159.34 366.191 161.967 378.976L182.97 378.138L162.721 382.364C164.818 391.089 168.184 400.334 172.62 409.26L179.708 405.629L173.601 411.192C178.276 420.231 184.048 428.867 190.704 436.213L205.156 418.262L192.702 438.353C201.456 447.433 211.626 454.246 222.776 456.899C222.776 456.899 232.925 440.691 224.555 410.333Z" fill="#10794D"/>
<path d="M221.949 456.681C222.226 456.752 222.5 456.832 222.779 456.898C222.779 456.898 232.928 440.689 224.558 410.333L214.295 413.06L223.668 407.278C222.703 404.143 221.553 400.872 220.167 397.456C217.319 390.426 213.241 382.384 208.518 374.605L199.286 382.595L205.789 370.254C192.293 349.421 174.798 332.365 165.084 345.036C172.865 356.983 205.647 408.734 221.949 456.681Z" fill="#04AD66"/>
<path d="M192.962 443.693C187.234 437.532 177.012 429.97 165.146 423.018C159.999 431.676 154.253 441.455 153.264 443.597C153.123 443.979 153.07 444.11 153.134 443.914C153.156 443.841 153.201 443.733 153.264 443.597C154.096 441.351 158.125 430.045 161.389 420.87C154.27 416.893 146.692 413.199 139.216 410.186L135.145 432.17L137.022 409.319C113.708 400.317 91.9701 398.375 89.1996 415.812C88.4338 420.632 89.9174 425.986 93.0975 431.59C102.034 430.994 114.961 430.037 114.961 430.037L96.1138 436.275C103.025 445.972 114.378 456.163 127.543 465.475L138.856 440.478L129.608 466.913C143.474 476.491 159.128 485.034 173.604 491.008C174.832 484.843 175.731 480.377 175.731 480.377L175.912 491.941C178.698 493.048 181.433 494.053 184.096 494.948L185.294 489.617L186.079 495.597C199.338 499.829 210.613 501.148 217.073 498.076C217.073 498.076 222.212 475.156 192.962 443.693Z" fill="#007248"/>
<path d="M273.254 279.139C287.224 239.953 306.334 231.773 314.142 232.581C327.09 230.642 327.771 256.345 326.493 269.439H306.901L326.493 273.804C326.152 294.755 321.24 317.129 318.826 325.696L294.549 320.362L318.826 329.576C312.693 355.959 303.493 380.337 299.66 389.228L274.957 376.134L298.382 392.138L295.401 397.958L288.586 396.503L294.549 399.898C283.987 424.34 264.309 434.331 255.791 436.271C248.636 426.571 246.563 407.98 246.421 399.898L259.198 396.503H246.421C245.058 382.535 249.26 358.351 251.532 348.005L261.328 352.855L251.958 345.58L253.236 340.731L274.105 348.005L254.939 334.426C256.984 320.847 266.865 294.173 271.55 282.534L284.753 284.474L273.254 279.139Z" fill="#096B42"/>
<path d="M294.755 400.719C283.972 424.914 264.361 435.176 255.904 437.283C268.59 337.612 302.155 259.429 317.351 232.796C327.817 234.962 328.055 258.676 326.866 270.262L307.44 269.36L326.866 273.422C325.597 297.257 321.58 318.563 319.73 326.237L293.565 319.917L318.541 329.397C312.515 359.009 303.344 381.76 299.512 389.434L275.329 375.892L298.719 392.142L295.547 398.462L288.808 396.656L294.755 400.719Z" fill="#0EA867"/>
<path fill-rule="evenodd" clip-rule="evenodd" d="M243.016 576.565C243.016 576.567 243.016 576.567 242.351 576.528L243.016 576.567C242.995 576.921 242.702 577.196 242.349 577.195C241.995 577.194 241.704 576.917 241.685 576.563C239.564 536.038 224.572 505.796 205.728 483.423C190.087 465.46 172.176 451.934 154.481 441.765C154.486 441.755 154.491 441.746 154.497 441.736C141.66 434.464 130.623 429.889 124.244 427.244L124.243 427.244C122.197 426.396 120.63 425.746 119.637 425.27C119.604 425.254 119.573 425.236 119.545 425.216C108.431 421.082 98.2176 418.179 89.7166 416.158C89.7267 416.067 89.7342 415.976 89.7417 415.885L89.7417 415.884C89.7538 415.737 89.7659 415.589 89.7889 415.444C92.5326 398.629 114.17 400.528 137.38 409.236L135.585 430.658C135.605 430.667 135.625 430.676 135.645 430.685L139.565 410.073C147.008 412.989 154.554 416.56 161.644 420.402C159.031 427.534 155.927 435.991 154.39 440.138C154.642 440.279 154.895 440.422 155.148 440.566C157.334 436.703 161.801 429.275 165.894 422.53C177.859 429.396 188.164 436.863 193.941 442.945C223.438 474.001 218.274 496.602 218.274 496.602C218.028 496.717 217.773 496.823 217.51 496.923C229.695 515.296 239 537.941 242.133 565.734C242.29 560.857 242.447 554.439 242.526 546.717C242.719 527.997 242.457 501.621 240.634 471.002C236.988 409.754 227.101 331.57 202.159 263.722C202.032 263.376 202.209 262.993 202.554 262.866C202.9 262.739 203.283 262.916 203.41 263.262C228.418 331.288 238.315 409.621 241.964 470.923C243.789 501.579 244.053 527.986 243.859 546.73C243.763 556.103 243.552 563.56 243.366 568.675C243.272 571.232 243.185 573.204 243.121 574.537C243.089 575.204 243.063 575.711 243.045 576.051C243.036 576.222 243.028 576.35 243.024 576.437L243.018 576.534L243.017 576.559L243.016 576.565Z" fill="#128E5A"/>
<path d="M186.231 378.88C186.231 378.88 242.35 468.044 242.35 576.528C250.834 387.054 293.962 283.805 293.962 283.805" stroke="#014D2D" stroke-miterlimit="10" stroke-linecap="round" stroke-linejoin="round"/>
<path d="M260.679 546.525H215.667C215.667 546.525 203.547 655.783 242.501 668.465C281.453 681.146 260.679 546.525 260.679 546.525Z" fill="#F52D29"/>
<path d="M268.592 546.525H226.389C226.389 546.525 216.84 655.783 247.531 668.465C296.342 674.724 268.592 546.525 268.592 546.525Z" fill="#F80700"/>
</g>
<g opacity="0.76">
<path d="M278.168 34.9827H263.61V100.216H278.168V34.9827Z" fill="#FF1F55"/>
<path d="M295.423 34.9827H280.865V100.216H295.423V34.9827Z" fill="#FFC702"/>
<path d="M306.182 36.15L293.851 44.9646L324.344 100.217L336.675 91.4025L306.182 36.15Z" fill="#3D99EE"/>
<path d="M419.778 114.596H262.678C259.327 114.596 256.113 113.081 253.743 110.384C251.374 107.688 250.043 104.03 250.043 100.216H432.412C432.412 104.03 431.081 107.687 428.712 110.384C426.342 113.081 423.129 114.596 419.778 114.596Z" fill="#6F2A1A"/>
<path d="M422.766 37.3982H353.214V100.215H422.766V37.3982Z" fill="#BDD8F5"/>
<path d="M418.117 43.5684H357.868V94.0324H418.117V43.5684Z" fill="#FB4C47"/>
<path d="M387.992 84.993C395.846 84.993 402.214 77.7461 402.214 68.8067C402.214 59.8672 395.846 52.6204 387.992 52.6204C380.137 52.6204 373.769 59.8672 373.769 68.8067C373.769 77.7461 380.137 84.993 387.992 84.993Z" fill="#FFC700"/>
<path d="M405.158 94.0327H357.868V69.8692C366.031 69.5175 378.09 70.6475 389.482 78.101C395.622 82.1165 400.96 87.542 405.158 94.0327Z" fill="#1DB776"/>
<path d="M418.115 60.8442V94.0334H380.2C382.629 88.2588 385.752 82.8968 389.48 78.1016C395.952 69.8178 405.186 62.6816 418.115 60.8442Z" fill="#11915B"/>
<path d="M286.925 127.081H275.589L277.155 100.216H285.359L286.925 127.081Z" fill="#592A3C"/>
<path d="M406.869 127.081H395.532L397.098 100.216H405.303L406.869 127.081Z" fill="#592A3C"/>
<path d="M645.304 86.1212H483.631V0H645.304V86.1212ZM490.563 78.2335H638.373V7.88989H490.562L490.563 78.2335Z" fill="#925C50"/>
<path d="M638.373 7.88989H490.562V78.2335H638.373V7.88989Z" fill="white"/>
<path d="M523.43 59.9193C535.886 56.5981 543.617 42.4143 540.699 28.2388C537.781 14.0633 525.318 5.26418 512.863 8.58536C500.407 11.9065 492.676 26.0904 495.594 40.2659C498.512 54.4413 510.975 63.2405 523.43 59.9193Z" fill="#FFC700"/>
<path d="M490.562 56.0252L534.502 33.6928C538.003 31.9132 541.864 31.2554 545.669 31.7904C549.474 32.3253 553.078 34.0326 556.093 36.7281L602.53 78.2328H490.564L490.562 56.0252Z" fill="#11915B"/>
<path d="M567.281 46.7289L600.378 34.2753C603.917 32.9436 607.704 32.705 611.351 33.5839C614.997 34.4628 618.374 36.4278 621.135 39.278L638.372 57.0723V78.2379H602.528L567.281 46.7289Z" fill="#1DB776"/>
</g>
<path opacity="0.89" d="M404.481 207.589C402.974 207.539 401.673 208.862 401.304 210.68C398.965 210.888 396.297 210.958 393.369 210.747C391.732 210.627 390.183 210.432 388.731 210.191C388.739 209.873 388.744 209.551 388.744 209.23C388.744 207.666 388.648 206.129 388.461 204.625C389.199 203.979 390.124 203.299 391.241 202.716C393.182 201.699 395 201.337 396.398 201.233C397.087 203.018 398.661 204.056 400.176 203.604C401.878 203.095 402.85 200.895 402.348 198.688C401.847 196.481 400.062 195.101 398.36 195.611C396.809 196.076 395.863 197.945 396.086 199.944C394.86 200.741 393.039 201.605 390.784 201.669C389.666 201.702 388.692 201.531 387.902 201.31C387.401 198.976 386.678 196.739 385.761 194.629C386.733 193.625 387.881 192.56 389.227 191.531C391.176 190.038 393.054 188.97 394.704 188.203C395.78 189.643 397.497 190.122 398.82 189.244C400.34 188.24 400.771 185.818 399.778 183.843C398.783 181.867 396.739 181.083 395.219 182.091C393.894 182.965 393.4 184.908 393.946 186.696C392.53 187.955 390.786 189.285 388.695 190.47C387.271 191.281 385.909 191.897 384.678 192.365C383.672 190.433 382.49 188.632 381.168 186.987C381.677 184.871 382.537 182.399 384.002 179.921C385.377 177.604 386.907 175.913 388.206 174.724C389.635 175.739 391.433 175.581 392.457 174.245C393.621 172.732 393.353 170.284 391.859 168.776C390.368 167.266 388.214 167.27 387.055 168.783C386.026 170.119 386.112 172.179 387.175 173.682C386.336 175.27 385.068 177.239 383.202 179.114C381.147 181.184 379.079 182.423 377.507 183.16C375.719 181.589 373.768 180.256 371.682 179.201C371.986 178.24 372.386 177.272 372.911 176.321C373.332 175.568 373.784 174.904 374.244 174.326C375.834 175.066 377.608 174.533 378.408 172.982C379.31 171.251 378.653 168.9 376.941 167.735C375.231 166.569 373.116 167.028 372.217 168.763C371.43 170.287 371.845 172.289 373.116 173.542C372.851 174.345 372.529 175.179 372.147 176.03C371.71 177.008 371.232 177.909 370.731 178.743C370.52 178.645 370.307 178.552 370.097 178.465C367.61 177.4 364.966 176.727 362.209 176.499C361.757 175.099 361.362 173.548 361.086 171.844C360.523 168.367 360.627 165.341 360.886 163.069C362.508 162.713 363.724 161.253 363.724 159.503C363.724 157.488 362.11 155.853 360.12 155.853C358.132 155.853 356.519 157.488 356.519 159.503C356.519 161.283 357.779 162.763 359.439 163.086C359.8 165.326 360.037 168.461 359.478 172.095C359.231 173.695 358.868 175.153 358.442 176.472C355.799 176.643 353.256 177.228 350.852 178.171C350.517 177.563 350.218 176.923 349.951 176.17C349.418 174.677 349.187 173.278 349.096 172.113C350.65 171.186 351.452 169.239 350.902 167.517C350.301 165.624 348.296 164.723 346.428 165.506C344.56 166.288 343.533 168.458 344.136 170.351C344.656 171.986 346.22 172.877 347.841 172.589C348.314 173.703 348.766 174.989 349.124 176.449C349.312 177.222 349.454 177.978 349.564 178.717C347.384 179.708 345.336 180.999 343.458 182.545C342.468 181.725 341.457 180.773 340.46 179.658C338.16 177.09 336.625 174.456 335.617 172.347C336.734 170.93 336.929 168.902 335.993 167.505C334.92 165.907 332.774 165.738 331.197 167.128C329.62 168.518 329.209 170.941 330.283 172.539C331.228 173.952 333.016 174.246 334.505 173.336C335.962 174.831 337.851 177.189 339.316 180.579C339.984 182.129 340.452 183.637 340.777 185.043C340.475 185.361 340.174 185.688 339.883 186.023C338.412 187.71 337.103 189.577 335.978 191.598C335.315 191.379 334.629 191.115 333.928 190.791C331.639 189.735 329.867 188.391 328.583 187.219C329.129 185.396 328.599 183.429 327.24 182.577C325.699 181.608 323.675 182.444 322.719 184.444C321.763 186.445 322.236 188.852 323.779 189.821C325.136 190.673 326.861 190.128 327.91 188.625C329.469 189.243 331.408 190.235 333.413 191.862C334.011 192.349 334.562 192.849 335.071 193.352C333.483 196.629 332.377 200.252 331.849 204.098C330.477 204.232 328.999 204.296 327.414 204.24C325.151 204.16 323.106 203.856 321.321 203.46C321.28 201.449 320.105 199.765 318.513 199.573C316.767 199.363 315.179 201.031 314.974 203.3C314.764 205.569 316.016 207.578 317.762 207.789C319.318 207.976 320.742 206.674 321.184 204.786C323.018 204.829 325.076 205.017 327.305 205.456C328.846 205.761 330.277 206.149 331.595 206.58C331.532 207.454 331.501 208.337 331.501 209.23C331.501 211.351 331.675 213.426 332.013 215.437C330.498 216.588 328.404 217.893 325.744 218.809C323.41 219.613 321.308 219.886 319.635 219.945C319.035 218.156 317.541 217.041 316.026 217.376C314.301 217.758 313.205 219.883 313.584 222.123C313.961 224.363 315.665 225.869 317.393 225.486C318.884 225.156 319.9 223.523 319.905 221.639C321.62 221 323.642 220.401 325.944 220.01C328.591 219.561 330.963 219.497 332.959 219.597C333.761 222.372 334.884 224.979 336.269 227.366C335.617 227.959 334.884 228.545 334.068 229.093C332.496 230.142 330.989 230.794 329.682 231.216C328.794 229.596 327.141 228.835 325.715 229.497C324.086 230.254 323.366 232.581 324.117 234.694C324.585 236.02 325.52 236.951 326.554 237.27C327.165 237.461 327.812 237.437 328.417 237.155C328.599 237.072 328.768 236.968 328.924 236.844C330.116 235.941 330.62 234.068 330.116 232.28C331.353 231.549 332.798 230.824 334.466 230.227C335.533 229.843 336.555 229.564 337.516 229.355C338.391 230.654 339.353 231.872 340.387 232.997C340.486 233.104 340.582 233.211 340.68 233.311C339.982 235.1 338.929 237.273 337.342 239.477C335.788 241.633 334.172 243.204 332.813 244.312C331.449 243.204 329.664 243.227 328.565 244.469C327.315 245.886 327.435 248.351 328.835 249.975C330.231 251.596 332.382 251.763 333.632 250.347C334.715 249.118 334.77 247.095 333.845 245.524C334.915 243.927 336.31 242.125 338.093 240.347C340.005 238.438 341.894 237.025 343.538 235.984C345.716 237.758 348.122 239.195 350.691 240.223C350.587 241.332 350.413 242.527 350.13 243.783C349.514 246.519 348.587 248.712 347.745 250.327C346.098 249.948 344.469 250.812 343.91 252.466C343.276 254.345 344.266 256.535 346.121 257.359C347.976 258.184 349.995 257.326 350.629 255.444C351.182 253.81 350.504 251.941 349.099 250.943C349.496 248.997 350.122 246.696 351.12 244.225C351.608 243.02 352.128 241.921 352.661 240.92C354.638 241.532 356.701 241.908 358.826 242.011C359.174 243.92 359.455 246.057 359.59 248.391C359.793 251.864 359.629 254.938 359.341 257.477C357.724 257.836 356.519 259.296 356.519 261.039C356.519 263.054 358.132 264.69 360.123 264.69C362.113 264.69 363.724 263.054 363.724 261.039C363.724 259.302 362.523 257.845 360.918 257.48C360.647 254.884 360.499 251.817 360.653 248.391C360.759 246.08 360.988 243.947 361.279 242.018C363.5 241.921 365.657 241.529 367.717 240.876C367.894 241.224 368.07 241.586 368.237 241.958C369.354 244.413 369.957 246.713 370.284 248.555C368.85 249.509 368.122 251.365 368.634 253.019C369.227 254.918 371.222 255.836 373.1 255.072C374.974 254.305 376.013 252.145 375.423 250.246C374.901 248.562 373.267 247.651 371.596 247.999C370.83 246.489 369.938 244.208 369.629 241.288C369.59 240.926 369.562 240.571 369.544 240.223C371.84 239.312 373.999 238.07 375.984 236.549C377.268 237.745 378.619 239.172 379.962 240.866C382.025 243.472 383.524 246.04 384.608 248.223C383.509 249.637 383.316 251.649 384.249 253.039C385.322 254.636 387.466 254.804 389.045 253.414C390.623 252.024 391.036 249.603 389.963 248.002C389.035 246.623 387.305 246.308 385.834 247.149C384.252 245.31 382.498 242.983 380.807 240.123C379.713 238.274 378.811 236.479 378.066 234.795C378.866 234.055 379.632 233.268 380.357 232.434C381.55 231.068 382.638 229.584 383.6 227.997C385.377 228.566 387.432 229.4 389.609 230.652C391.709 231.855 393.457 233.177 394.868 234.41C394.333 236.198 394.842 238.134 396.164 238.997C397.692 239.999 399.727 239.202 400.716 237.223C401.704 235.24 401.265 232.826 399.737 231.825C398.401 230.95 396.676 231.449 395.603 232.916C394.029 232.229 392.119 231.188 390.139 229.591C388.081 227.933 386.53 226.155 385.403 224.621C386.164 222.987 386.806 221.269 387.318 219.481C388.172 219.514 389.071 219.601 390.009 219.762C392.413 220.178 394.416 220.958 395.957 221.735C395.824 223.643 396.765 225.391 398.259 225.83C399.958 226.332 401.743 224.949 402.239 222.739C402.733 220.529 401.753 218.332 400.054 217.83C398.552 217.388 396.991 218.406 396.302 220.164C394.663 220.01 392.569 219.598 390.277 218.58C389.404 218.192 388.601 217.759 387.868 217.307C388.235 215.65 388.492 213.945 388.625 212.197C390.105 212.06 391.683 211.973 393.338 211.969C396.266 211.959 398.921 212.2 401.254 212.555C401.535 214.394 402.769 215.794 404.276 215.847C406.032 215.904 407.505 214.102 407.56 211.822C407.617 209.541 406.24 207.646 404.481 207.589Z" fill="#FA5752" fill-opacity="0.82"/>
<path opacity="0.93" d="M139.786 117.32C137.471 117.242 135.471 119.284 134.904 122.092C131.311 122.413 127.211 122.521 122.711 122.195C120.196 122.01 117.817 121.709 115.585 121.337C115.597 120.846 115.605 120.35 115.605 119.853C115.605 117.438 115.457 115.065 115.17 112.744C116.304 111.746 117.725 110.696 119.442 109.796C122.424 108.225 125.218 107.666 127.366 107.506C128.424 110.262 130.844 111.864 133.171 111.167C135.786 110.381 137.279 106.984 136.509 103.576C135.738 100.169 132.996 98.0386 130.381 98.8247C127.997 99.5432 126.544 102.429 126.887 105.515C125.003 106.746 122.204 108.08 118.739 108.178C117.022 108.23 115.525 107.966 114.311 107.625C113.541 104.021 112.431 100.567 111.022 97.3095C112.515 95.7584 114.28 94.114 116.348 92.5266C119.342 90.2207 122.228 88.5712 124.763 87.3877C126.416 89.6103 129.055 90.35 131.087 88.9949C133.423 87.4443 134.085 83.7055 132.56 80.6554C131.031 77.6043 127.889 76.3946 125.554 77.9507C123.518 79.3003 122.759 82.2998 123.598 85.0606C121.422 87.005 118.743 89.0574 115.529 90.8881C113.341 92.1393 111.249 93.0905 109.357 93.8141C107.812 90.8307 105.995 88.0491 103.963 85.5105C104.746 82.2428 106.067 78.4263 108.319 74.6007C110.431 71.0225 112.782 68.4116 114.779 66.5753C116.974 68.1425 119.737 67.8992 121.31 65.8362C123.099 63.4994 122.687 59.7198 120.392 57.3927C118.1 55.0611 114.791 55.0662 113.01 57.4029C111.429 59.4663 111.561 62.6462 113.194 64.9677C111.904 67.4185 109.956 70.4585 107.089 73.3541C103.931 76.5501 100.754 78.4631 98.3382 79.6007C95.5915 77.1752 92.5933 75.1172 89.3875 73.4889C89.8546 72.005 90.4694 70.5105 91.2758 69.0422C91.9226 67.8789 92.6172 66.8546 93.3239 65.9608C95.7672 67.1034 98.4939 66.2805 99.7235 63.8868C101.109 61.2138 100.099 57.5841 97.4679 55.7846C94.8409 53.9852 91.5912 54.6936 90.2099 57.3721C89.0002 59.7249 89.639 62.8164 91.5912 64.7502C91.184 65.9912 90.6889 67.2791 90.1021 68.5919C89.4314 70.102 88.6968 71.493 87.9263 72.7805C87.6029 72.6306 87.2755 72.4857 86.9522 72.3518C83.1315 70.7074 79.0673 69.6683 74.8315 69.3159C74.1368 67.1549 73.53 64.7598 73.1068 62.1292C72.2404 56.7612 72.4002 52.0891 72.7994 48.5804C75.2906 48.0307 77.159 45.7764 77.159 43.0754C77.159 39.9631 74.6798 37.4397 71.6217 37.4397C68.5675 37.4397 66.0883 39.9631 66.0883 43.0754C66.0883 45.8233 68.0246 48.1085 70.5757 48.6076C71.1306 52.0648 71.4939 56.9056 70.6356 62.5165C70.2563 64.9866 69.6974 67.2377 69.0426 69.275C64.9824 69.539 61.074 70.4424 57.3811 71.8983C56.8661 70.9585 56.4069 69.9719 55.9957 68.8081C55.1773 66.5041 54.822 64.3431 54.6822 62.545C57.0697 61.1126 58.3033 58.1076 57.4569 55.4489C56.5347 52.5248 53.4526 51.1342 50.5822 52.3426C47.7117 53.551 46.1347 56.9005 47.0609 59.8242C47.8594 62.3477 50.2628 63.7244 52.754 63.2791C53.4806 64.9999 54.1752 66.9847 54.7262 69.2387C55.0136 70.4328 55.2332 71.5997 55.4009 72.7414C52.0513 74.2709 48.9054 76.2649 46.0189 78.6513C44.4978 77.3858 42.9449 75.9162 41.4118 74.1936C37.8786 70.229 35.5191 66.1628 33.9701 62.9052C35.6868 60.718 35.9862 57.5873 34.549 55.43C32.9002 52.9622 29.6025 52.7014 27.1792 54.8481C24.7559 56.9944 24.1251 60.7354 25.7739 63.2028C27.2271 65.384 29.9738 65.8376 32.2614 64.4328C34.5011 66.7405 37.4035 70.3822 39.6552 75.6158C40.6812 78.0096 41.3998 80.3375 41.8989 82.5087C41.4358 82.999 40.9727 83.505 40.5255 84.0211C38.2659 86.6255 36.2537 89.5091 34.5251 92.6301C33.507 92.2915 32.453 91.8835 31.3751 91.3826C27.8579 89.7534 25.1351 87.677 23.1629 85.8679C24.0013 83.0538 23.1869 80.017 21.0989 78.7009C18.7315 77.2051 15.6215 78.4958 14.1523 81.5841C12.6831 84.6729 13.4097 88.3895 15.7812 89.8849C17.8651 91.2009 20.516 90.3601 22.1289 88.0395C24.5243 88.9935 27.5026 90.5243 30.5846 93.0376C31.5029 93.7883 32.3492 94.5606 33.1317 95.3375C30.6924 100.398 28.9917 105.991 28.1813 111.929C26.0733 112.137 23.8017 112.235 21.3664 112.149C17.8891 112.025 14.7471 111.556 12.0044 110.944C11.9405 107.839 10.136 105.239 7.68873 104.943C5.00589 104.619 2.56658 107.194 2.25118 110.698C1.92781 114.2 3.85209 117.303 6.53493 117.628C8.92633 117.917 11.1141 115.906 11.7928 112.992C14.6114 113.058 17.7733 113.348 21.1987 114.027C23.5662 114.496 25.7659 115.096 27.79 115.762C27.6942 117.11 27.6463 118.474 27.6463 119.853C27.6463 123.129 27.9138 126.332 28.4328 129.437C26.1053 131.213 22.8875 133.229 18.7993 134.643C15.2142 135.884 11.9845 136.306 9.41341 136.397C8.49119 133.636 6.19559 131.913 3.86807 132.43C1.21717 133.021 -0.467582 136.302 0.115296 139.76C0.694182 143.219 3.31316 145.544 5.96805 144.953C8.25964 144.443 9.82061 141.921 9.82859 139.013C12.4635 138.026 15.5696 137.101 19.1067 136.497C23.1749 135.804 26.8199 135.706 29.886 135.859C31.1196 140.144 32.8443 144.17 34.9722 147.855C33.9701 148.771 32.8443 149.676 31.5907 150.522C29.1754 152.141 26.8598 153.148 24.8517 153.799C23.4863 151.298 20.9472 150.123 18.7554 151.145C16.2522 152.314 15.1464 155.907 16.3002 159.17C17.0188 161.218 18.456 162.655 20.0449 163.146C20.9831 163.441 21.9772 163.405 22.9074 162.97C23.1869 162.841 23.4464 162.681 23.6859 162.489C25.5184 161.094 26.2929 158.202 25.5184 155.443C27.4187 154.313 29.6385 153.194 32.2015 152.272C33.8424 151.68 35.4114 151.248 36.8885 150.926C38.2339 152.931 39.7111 154.812 41.3 156.549C41.4517 156.714 41.5995 156.879 41.7512 157.034C40.6772 159.796 39.0603 163.151 36.621 166.554C34.2336 169.883 31.7504 172.309 29.6624 174.02C27.5665 172.309 24.8238 172.344 23.135 174.263C21.2147 176.45 21.3983 180.256 23.5502 182.763C25.6941 185.266 28.9997 185.524 30.92 183.337C32.5848 181.44 32.6686 178.317 31.2474 175.891C32.8922 173.425 35.0361 170.643 37.7748 167.898C40.7131 164.951 43.6156 162.769 46.1427 161.161C49.4883 163.901 53.1851 166.119 57.1335 167.707C56.9738 169.418 56.7064 171.264 56.2712 173.203C55.325 177.427 53.8998 180.814 52.6062 183.306C50.0751 182.722 47.5719 184.056 46.7136 186.61C45.7395 189.511 47.2605 192.892 50.111 194.164C52.9616 195.437 56.0636 194.113 57.0377 191.207C57.8881 188.684 56.8461 185.798 54.6863 184.258C55.2971 181.253 56.2592 177.701 57.7923 173.886C58.5428 172.024 59.3413 170.328 60.1597 168.782C63.1979 169.728 66.3678 170.308 69.6335 170.468C70.1684 173.415 70.5996 176.714 70.8072 180.318C71.1186 185.679 70.8671 190.426 70.424 194.346C67.9408 194.901 66.0883 197.155 66.0883 199.847C66.0883 202.958 68.5675 205.483 71.6256 205.483C74.6838 205.483 77.159 202.958 77.159 199.847C77.159 197.164 75.3145 194.914 72.8473 194.35C72.4321 190.343 72.2045 185.607 72.4401 180.318C72.6038 176.75 72.9551 173.457 73.4022 170.478C76.8157 170.328 80.1293 169.723 83.2952 168.715C83.5667 169.252 83.8381 169.811 84.0936 170.385C85.8103 174.175 86.7365 177.728 87.2396 180.571C85.0358 182.045 83.918 184.909 84.7044 187.463C85.6147 190.395 88.6808 191.812 91.5673 190.633C94.4457 189.449 96.0427 186.114 95.1364 183.182C94.3339 180.582 91.8227 179.175 89.2557 179.713C88.078 177.381 86.7086 173.86 86.2335 169.35C86.1737 168.792 86.1297 168.244 86.1018 167.707C89.631 166.3 92.9486 164.382 95.9987 162.034C97.9709 163.88 100.047 166.083 102.111 168.7C105.281 172.722 107.584 176.688 109.249 180.059C107.56 182.241 107.265 185.349 108.698 187.494C110.347 189.96 113.641 190.219 116.068 188.074C118.491 185.927 119.126 182.189 117.477 179.718C116.052 177.588 113.393 177.102 111.134 178.4C108.702 175.561 106.007 171.967 103.408 167.551C101.728 164.697 100.342 161.926 99.1966 159.325C100.426 158.183 101.604 156.967 102.718 155.68C104.55 153.57 106.223 151.28 107.7 148.829C110.431 149.708 113.589 150.995 116.934 152.929C120.16 154.786 122.847 156.827 125.015 158.73C124.192 161.492 124.975 164.48 127.007 165.814C129.355 167.361 132.481 166.13 134.002 163.074C135.519 160.013 134.844 156.285 132.496 154.739C130.444 153.39 127.794 154.16 126.145 156.424C123.725 155.364 120.791 153.757 117.749 151.29C114.587 148.731 112.204 145.985 110.471 143.617C111.641 141.094 112.627 138.442 113.413 135.68C114.727 135.732 116.108 135.867 117.549 136.114C121.242 136.756 124.32 137.961 126.688 139.16C126.484 142.107 127.929 144.806 130.225 145.483C132.836 146.259 135.579 144.124 136.341 140.711C137.1 137.298 135.595 133.907 132.984 133.131C130.676 132.448 128.277 134.021 127.219 136.735C124.699 136.497 121.482 135.861 117.96 134.289C116.619 133.69 115.385 133.022 114.26 132.325C114.823 129.765 115.218 127.133 115.421 124.435C117.697 124.223 120.12 124.088 122.663 124.083C127.163 124.067 131.243 124.439 134.828 124.988C135.259 127.827 137.156 129.988 139.471 130.07C142.17 130.158 144.433 127.376 144.517 123.855C144.605 120.334 142.489 117.407 139.786 117.32Z" fill="#FA5752" fill-opacity="0.9"/>
<path d="M800.059 54.5189C798.674 54.4718 797.478 55.7099 797.139 57.412C794.991 57.6064 792.54 57.6722 789.85 57.4747C788.346 57.3621 786.923 57.18 785.589 56.9544C785.596 56.6566 785.601 56.3557 785.601 56.0548C785.601 54.5909 785.513 53.1523 785.341 51.745C786.019 51.1401 786.868 50.5038 787.895 49.9581C789.678 49.0055 791.349 48.6667 792.633 48.5697C793.265 50.2406 794.712 51.2118 796.104 50.7891C797.667 50.3125 798.56 48.2532 798.099 46.1875C797.638 44.1221 795.999 42.8304 794.435 43.307C793.01 43.7425 792.141 45.4918 792.346 47.3628C791.22 48.109 789.547 48.9177 787.475 48.9774C786.448 49.0086 785.553 48.8486 784.828 48.6416C784.367 46.4571 783.703 44.363 782.861 42.3885C783.753 41.4482 784.809 40.4513 786.045 39.489C787.835 38.0911 789.561 37.0912 791.077 36.3737C792.065 37.7211 793.643 38.1695 794.858 37.348C796.254 36.408 796.65 34.1415 795.738 32.2925C794.824 30.4428 792.946 29.7095 791.549 30.6528C790.332 31.471 789.878 33.2893 790.38 34.963C789.079 36.1417 787.477 37.3859 785.556 38.4957C784.248 39.2542 782.997 39.8309 781.865 40.2695C780.942 38.4609 779.856 36.7747 778.641 35.2357C779.109 33.2548 779.899 30.9412 781.245 28.622C782.508 26.4528 783.913 24.87 785.107 23.7569C786.42 24.7069 788.071 24.5594 789.012 23.3088C790.081 21.8922 789.835 19.6009 788.463 18.1902C787.093 16.7767 785.114 16.7798 784.049 18.1964C783.104 19.4473 783.183 21.375 784.159 22.7823C783.388 24.268 782.223 26.1109 780.51 27.8663C778.622 29.8037 776.722 30.9635 775.277 31.6531C773.635 30.1827 771.843 28.9351 769.926 27.948C770.205 27.0484 770.573 26.1424 771.055 25.2524C771.442 24.5472 771.857 23.9261 772.279 23.3843C773.74 24.077 775.371 23.5782 776.106 22.127C776.934 20.5066 776.33 18.3062 774.757 17.2154C773.187 16.1245 771.244 16.5539 770.418 18.1777C769.694 19.604 770.076 21.4781 771.244 22.6504C771 23.4028 770.704 24.1835 770.353 24.9794C769.952 25.8948 769.513 26.7381 769.052 27.5186C768.859 27.4277 768.663 27.3398 768.47 27.2587C766.186 26.2618 763.756 25.6319 761.223 25.4183C760.808 24.1082 760.445 22.6563 760.192 21.0615C759.674 17.8074 759.77 14.9751 760.008 12.848C761.498 12.5148 762.615 11.1482 762.615 9.51077C762.615 7.62409 761.132 6.09432 759.304 6.09432C757.478 6.09432 755.996 7.62409 755.996 9.51077C755.996 11.1766 757.153 12.5619 758.679 12.8645C759.01 14.9603 759.228 17.8949 758.715 21.2963C758.488 22.7937 758.154 24.1584 757.762 25.3935C755.335 25.5535 752.998 26.1012 750.79 26.9837C750.482 26.414 750.207 25.8159 749.962 25.1104C749.472 23.7137 749.26 22.4036 749.176 21.3136C750.604 20.4453 751.341 18.6236 750.835 17.0118C750.284 15.2392 748.441 14.3962 746.725 15.1287C745.009 15.8613 744.066 17.8919 744.62 19.6642C745.097 21.194 746.534 22.0286 748.023 21.7587C748.458 22.8018 748.873 24.0051 749.203 25.3714C749.374 26.0953 749.506 26.8028 749.606 27.4949C747.603 28.422 745.722 29.6308 743.997 31.0775C743.087 30.3104 742.159 29.4195 741.242 28.3752C739.13 25.9718 737.719 23.5068 736.793 21.532C737.819 20.206 737.998 18.3082 737.139 17.0004C736.153 15.5044 734.182 15.3463 732.733 16.6476C731.284 17.9487 730.907 20.2166 731.892 21.7124C732.761 23.0347 734.404 23.3096 735.771 22.458C737.11 23.857 738.846 26.0646 740.192 29.2374C740.805 30.6885 741.235 32.0998 741.533 33.4159C741.256 33.7132 740.98 34.0199 740.712 34.3328C739.361 35.9116 738.158 37.6597 737.125 39.5517C736.516 39.3465 735.886 39.0992 735.241 38.7955C733.138 37.8078 731.511 36.5491 730.331 35.4524C730.833 33.7464 730.346 31.9054 729.097 31.1076C727.682 30.2008 725.822 30.9833 724.944 32.8554C724.066 34.7279 724.5 36.981 725.918 37.8876C727.164 38.6853 728.749 38.1756 729.713 36.7688C731.145 37.3472 732.926 38.2751 734.769 39.7988C735.318 40.2539 735.824 40.7221 736.292 41.193C734.833 44.2606 733.816 47.6512 733.332 51.2508C732.071 51.3769 730.713 51.4365 729.257 51.3844C727.178 51.3094 725.3 51.0247 723.66 50.6541C723.622 48.7716 722.543 47.1955 721.08 47.0162C719.476 46.8194 718.017 48.3809 717.829 50.5046C717.635 52.6278 718.786 54.5089 720.39 54.7058C721.82 54.8809 723.128 53.662 723.533 51.8955C725.219 51.9354 727.109 52.1111 729.157 52.5227C730.572 52.8074 731.888 53.171 733.098 53.5745C733.041 54.3921 733.012 55.2189 733.012 56.0548C733.012 58.0405 733.172 59.9827 733.482 61.8649C732.091 62.9416 730.167 64.1632 727.722 65.0207C725.579 65.773 723.648 66.029 722.111 66.0839C721.559 64.41 720.187 63.366 718.795 63.6794C717.21 64.0375 716.203 66.0265 716.552 68.1229C716.898 70.2195 718.464 71.6288 720.051 71.2708C721.421 70.9618 722.354 69.4329 722.359 67.67C723.934 67.0716 725.791 66.5106 727.906 66.1444C730.339 65.7248 732.518 65.6648 734.351 65.7579C735.089 68.3554 736.12 70.7962 737.392 73.0303C736.793 73.5855 736.12 74.134 735.37 74.6465C733.926 75.6281 732.542 76.2388 731.341 76.6333C730.525 75.1172 729.007 74.4051 727.696 75.0247C726.2 75.7332 725.538 77.9116 726.228 79.8895C726.658 81.1306 727.517 82.002 728.467 82.2998C729.028 82.4786 729.622 82.4565 730.179 82.193C730.346 82.115 730.501 82.0176 730.644 81.9016C731.74 81.0559 732.203 79.3028 731.74 77.6299C732.876 76.9451 734.203 76.2669 735.735 75.7076C736.716 75.3487 737.655 75.0871 738.538 74.8919C739.342 76.1074 740.225 77.2476 741.175 78.3006C741.266 78.4004 741.354 78.5008 741.445 78.5948C740.803 80.2687 739.836 82.3029 738.378 84.3655C736.95 86.3839 735.466 87.8542 734.217 88.8915C732.964 87.8542 731.324 87.876 730.315 89.0388C729.167 90.365 729.276 92.6719 730.563 94.1922C731.845 95.7091 733.821 95.8658 734.969 94.5399C735.965 93.3897 736.015 91.4966 735.165 90.0262C736.148 88.5313 737.43 86.8448 739.068 85.1803C740.824 83.3938 742.56 82.0709 744.071 81.0963C746.071 82.7574 748.281 84.102 750.642 85.0646C750.546 86.1019 750.386 87.221 750.126 88.3963C749.561 90.9573 748.708 93.0104 747.935 94.5212C746.422 94.1671 744.925 94.9755 744.412 96.5239C743.83 98.2826 744.739 100.332 746.443 101.103C748.148 101.875 750.002 101.073 750.585 99.3107C751.093 97.7812 750.47 96.032 749.179 95.0982C749.544 93.2767 750.119 91.1234 751.036 88.8104C751.484 87.6819 751.962 86.6538 752.451 85.7163C754.268 86.2899 756.163 86.6412 758.115 86.7383C758.435 88.5249 758.693 90.5248 758.817 92.7095C759.003 95.9598 758.853 98.8372 758.588 101.214C757.103 101.55 755.996 102.917 755.996 104.548C755.996 106.434 757.478 107.965 759.306 107.965C761.135 107.965 762.615 106.434 762.615 104.548C762.615 102.922 761.512 101.558 760.037 101.216C759.789 98.7871 759.653 95.916 759.793 92.7095C759.891 90.5465 760.101 88.5502 760.369 86.7447C762.409 86.6538 764.391 86.2868 766.283 85.6759C766.446 86.0015 766.608 86.3401 766.761 86.6881C767.787 88.9858 768.341 91.1393 768.642 92.8632C767.324 93.7563 766.656 95.4927 767.126 97.0412C767.67 98.8186 769.503 99.6777 771.229 98.9627C772.95 98.245 773.905 96.223 773.363 94.4457C772.883 92.8696 771.382 92.0169 769.847 92.3429C769.143 90.9291 768.324 88.7945 768.04 86.0609C768.004 85.7227 767.978 85.3903 767.961 85.0646C770.072 84.2119 772.055 83.0491 773.879 81.6259C775.058 82.7449 776.299 84.0803 777.533 85.6664C779.428 88.1049 780.806 90.5092 781.801 92.5526C780.791 93.8757 780.615 95.7593 781.472 97.0601C782.457 98.5551 784.427 98.712 785.878 97.4112C787.327 96.1101 787.706 93.8442 786.72 92.3457C785.868 91.0546 784.279 90.7598 782.928 91.5467C781.474 89.8257 779.863 87.6473 778.309 84.9704C777.304 83.2401 776.476 81.5603 775.791 79.9834C776.526 79.2908 777.23 78.5541 777.896 77.7738C778.992 76.4948 779.992 75.1061 780.875 73.6207C782.508 74.1533 784.396 74.9338 786.396 76.106C788.324 77.2315 789.931 78.4693 791.227 79.6229C790.735 81.2968 791.203 83.1085 792.418 83.9172C793.822 84.8546 795.691 84.1085 796.6 82.2561C797.507 80.4006 797.104 78.1402 795.7 77.2033C794.473 76.3852 792.888 76.8522 791.903 78.225C790.456 77.5823 788.702 76.6077 786.883 75.1125C784.992 73.561 783.567 71.8965 782.531 70.4607C783.231 68.9313 783.82 67.3234 784.291 65.6495C785.076 65.681 785.902 65.7624 786.763 65.9127C788.971 66.3017 790.812 67.032 792.227 67.7592C792.105 69.5456 792.969 71.1819 794.342 71.5923C795.903 72.0625 797.543 70.768 797.999 68.6993C798.452 66.6305 797.552 64.5745 795.991 64.1044C794.612 63.6903 793.177 64.6437 792.545 66.2889C791.038 66.1447 789.115 65.7593 787.009 64.8062C786.207 64.4429 785.47 64.0383 784.797 63.6153C785.133 62.0638 785.369 60.4679 785.491 58.8322C786.852 58.7036 788.301 58.6222 789.821 58.6189C792.511 58.6094 794.951 58.835 797.094 59.1674C797.352 60.8884 798.486 62.1985 799.87 62.2486C801.484 62.3019 802.837 60.6154 802.887 58.4808C802.94 56.3462 801.675 54.5722 800.059 54.5189Z" fill="#FA5752" fill-opacity="0.75"/>
<path d="M893.619 363.507C890.489 363.401 887.791 366.195 887.025 370.035C882.18 370.473 876.643 370.622 870.565 370.176C867.185 369.921 863.971 369.511 860.966 369.002C860.982 368.33 860.991 367.652 860.991 366.973C860.991 363.67 860.783 360.424 860.4 357.248C861.932 355.882 863.846 354.447 866.169 353.216C870.191 351.066 873.954 350.303 876.86 350.083C878.283 353.853 881.555 356.046 884.686 355.091C888.216 354.016 890.239 349.368 889.19 344.708C888.149 340.047 884.453 337.133 880.922 338.208C877.709 339.191 875.744 343.137 876.21 347.36C873.671 349.043 869.891 350.868 865.212 351.002C862.906 351.073 860.882 350.712 859.242 350.246C858.202 345.316 856.711 340.591 854.805 336.136C856.82 334.014 859.201 331.765 861.99 329.593C866.028 326.439 869.924 324.183 873.346 322.563C875.577 325.605 879.132 326.616 881.88 324.763C885.035 322.64 885.918 317.527 883.861 313.354C881.805 309.182 877.567 307.526 874.412 309.655C871.673 311.501 870.64 315.603 871.772 319.38C868.834 322.039 865.22 324.847 860.882 327.351C857.935 329.063 855.113 330.364 852.557 331.354C850.467 327.273 848.028 323.468 845.28 319.995C846.338 315.525 848.119 310.306 851.158 305.072C854.014 300.178 857.178 296.606 859.867 294.095C862.831 296.238 866.561 295.906 868.684 293.084C871.098 289.887 870.549 284.717 867.443 281.535C864.354 278.345 859.892 278.351 857.486 281.548C855.363 284.371 855.529 288.721 857.735 291.895C855.995 295.248 853.364 299.407 849.501 303.368C845.239 307.738 840.959 310.356 837.695 311.912C833.982 308.594 829.936 305.779 825.615 303.552C826.239 301.521 827.072 299.478 828.163 297.47C829.037 295.878 829.978 294.477 830.927 293.254C834.215 294.817 837.904 293.692 839.56 290.418C841.425 286.761 840.06 281.795 836.513 279.335C832.966 276.874 828.587 277.842 826.722 281.506C825.09 284.725 825.948 288.953 828.587 291.598C828.038 293.296 827.372 295.058 826.572 296.853C825.665 298.919 824.682 300.822 823.642 302.582C823.2 302.377 822.768 302.18 822.326 301.996C817.181 299.746 811.694 298.325 805.975 297.844C805.034 294.888 804.218 291.611 803.643 288.013C802.478 280.67 802.694 274.28 803.235 269.48C806.599 268.728 809.113 265.645 809.113 261.95C809.113 257.693 805.775 254.241 801.654 254.241C797.524 254.241 794.177 257.693 794.177 261.95C794.177 265.708 796.783 268.834 800.23 269.516C800.979 274.247 801.47 280.868 800.321 288.543C799.805 291.921 799.048 295 798.165 297.788C792.678 298.148 787.408 299.384 782.43 301.376C781.738 300.091 781.114 298.741 780.556 297.149C779.457 293.996 778.983 291.041 778.791 288.582C782.013 286.622 783.67 282.511 782.538 278.875C781.289 274.876 777.134 272.973 773.255 274.626C769.383 276.279 767.252 280.861 768.509 284.861C769.591 288.311 772.83 290.195 776.185 289.585C777.168 291.94 778.109 294.654 778.841 297.738C779.241 299.371 779.532 300.968 779.757 302.53C775.236 304.622 770.998 307.349 767.102 310.614C765.054 308.882 762.956 306.872 760.883 304.516C756.112 299.093 752.932 293.53 750.842 289.075C753.156 286.083 753.564 281.8 751.624 278.85C749.401 275.473 744.947 275.117 741.675 278.053C738.412 280.99 737.562 286.107 739.777 289.482C741.75 292.465 745.447 293.085 748.544 291.164C751.558 294.322 755.479 299.302 758.51 306.462C759.9 309.736 760.866 312.92 761.549 315.889C760.924 316.56 760.291 317.253 759.684 317.959C756.645 321.521 753.922 325.466 751.591 329.734C750.217 329.272 748.794 328.713 747.337 328.028C742.599 325.8 738.928 322.959 736.264 320.484C737.396 316.635 736.289 312.482 733.474 310.681C730.286 308.634 726.09 310.4 724.108 314.626C722.118 318.85 723.101 323.934 726.306 325.98C729.112 327.779 732.692 326.63 734.865 323.455C738.095 324.761 742.125 326.854 746.279 330.292C747.52 331.319 748.652 332.375 749.71 333.437C746.421 340.36 744.123 348.011 743.032 356.133C740.193 356.416 737.129 356.552 733.841 356.434C729.145 356.265 724.907 355.623 721.202 354.786C721.119 350.538 718.688 346.983 715.391 346.578C711.761 346.133 708.472 349.657 708.039 354.449C707.615 359.24 710.204 363.484 713.826 363.928C717.056 364.324 720.003 361.573 720.928 357.587C724.724 357.676 728.987 358.073 733.608 359.002C736.813 359.645 739.769 360.465 742.508 361.376C742.375 363.221 742.316 365.086 742.316 366.973C742.316 371.453 742.674 375.834 743.374 380.082C740.227 382.513 735.897 385.269 730.377 387.204C725.54 388.901 721.186 389.479 717.714 389.603C716.465 385.826 713.368 383.47 710.229 384.177C706.657 384.984 704.384 389.472 705.167 394.202C705.95 398.934 709.488 402.114 713.06 401.307C716.157 400.608 718.263 397.159 718.272 393.181C721.827 391.831 726.023 390.564 730.794 389.74C736.272 388.792 741.192 388.656 745.339 388.866C746.995 394.729 749.327 400.235 752.199 405.276C750.842 406.529 749.335 407.766 747.628 408.923C744.373 411.138 741.251 412.516 738.536 413.407C736.705 409.984 733.275 408.378 730.311 409.776C726.939 411.375 725.448 416.29 726.997 420.753C727.971 423.554 729.911 425.521 732.059 426.193C733.325 426.595 734.665 426.547 735.922 425.952C736.289 425.775 736.647 425.556 736.971 425.294C739.436 423.386 740.485 419.43 739.444 415.655C742.008 414.11 745.006 412.579 748.452 411.317C750.675 410.508 752.79 409.916 754.78 409.477C756.595 412.219 758.593 414.793 760.733 417.168C760.933 417.394 761.141 417.621 761.341 417.832C759.892 421.609 757.71 426.199 754.422 430.853C751.2 435.408 747.853 438.724 745.03 441.067C742.208 438.724 738.503 438.775 736.23 441.399C733.633 444.39 733.882 449.596 736.788 453.026C739.677 456.449 744.14 456.804 746.729 453.811C748.985 451.215 749.093 446.944 747.178 443.627C749.393 440.252 752.282 436.448 755.97 432.692C759.942 428.661 763.855 425.676 767.268 423.476C771.781 427.224 776.768 430.259 782.088 432.43C781.88 434.771 781.522 437.296 780.931 439.949C779.649 445.728 777.734 450.36 775.994 453.769C772.572 452.969 769.192 454.794 768.034 458.289C766.727 462.257 768.784 466.882 772.63 468.622C776.468 470.362 780.648 468.551 781.972 464.576C783.112 461.125 781.713 457.178 778.791 455.07C779.615 450.961 780.923 446.101 782.987 440.882C784.003 438.336 785.077 436.016 786.176 433.902C790.281 435.196 794.552 435.989 798.964 436.208C799.68 440.24 800.263 444.751 800.546 449.681C800.971 457.015 800.63 463.508 800.03 468.869C796.683 469.626 794.177 472.709 794.177 476.395C794.177 480.653 797.516 484.103 801.654 484.103C805.775 484.103 809.113 480.653 809.113 476.395C809.113 472.724 806.624 469.647 803.294 468.876C802.736 463.394 802.436 456.916 802.752 449.681C802.969 444.8 803.444 440.295 804.043 436.221C808.655 436.016 813.126 435.189 817.397 433.809C817.764 434.545 818.122 435.309 818.471 436.095C820.794 441.278 822.043 446.138 822.718 450.027C819.745 452.043 818.23 455.961 819.304 459.456C820.52 463.465 824.666 465.404 828.554 463.79C832.434 462.171 834.598 457.609 833.374 453.599C832.292 450.042 828.903 448.117 825.44 448.853C823.85 445.663 822.001 440.847 821.36 434.68C821.277 433.915 821.219 433.167 821.186 432.43C825.94 430.507 830.419 427.883 834.54 424.672C837.196 427.196 839.993 430.209 842.774 433.788C847.054 439.29 850.167 444.716 852.415 449.327C850.134 452.312 849.743 456.562 851.666 459.498C853.897 462.871 858.343 463.225 861.615 460.289C864.879 457.355 865.728 452.242 863.513 448.861C861.59 445.946 858.002 445.281 854.955 447.057C851.674 443.174 848.036 438.259 844.531 432.218C842.266 428.314 840.393 424.524 838.853 420.965C840.51 419.402 842.091 417.74 843.607 415.979C846.071 413.094 848.327 409.96 850.326 406.608C854.014 407.811 858.268 409.572 862.781 412.216C867.135 414.757 870.765 417.55 873.687 420.152C872.58 423.93 873.629 428.017 876.377 429.841C879.54 431.957 883.762 430.273 885.81 426.093C887.858 421.907 886.942 416.807 883.778 414.691C881.014 412.847 877.426 413.901 875.211 416.998C871.947 415.547 867.984 413.348 863.88 409.975C859.617 406.474 856.395 402.718 854.064 399.478C855.637 396.028 856.969 392.399 858.035 388.622C859.8 388.693 861.673 388.877 863.605 389.216C868.592 390.094 872.747 391.741 875.944 393.382C875.669 397.414 877.617 401.105 880.706 402.032C884.236 403.093 887.933 400.172 888.965 395.505C889.989 390.837 887.966 386.197 884.428 385.136C881.33 384.201 878.092 386.352 876.651 390.064C873.263 389.74 868.908 388.869 864.154 386.72C862.356 385.899 860.691 384.987 859.176 384.032C859.933 380.532 860.466 376.93 860.741 373.239C863.813 372.949 867.077 372.765 870.515 372.757C876.576 372.737 882.088 373.246 886.925 373.995C887.508 377.879 890.064 380.835 893.186 380.949C896.833 381.069 899.888 377.263 899.997 372.447C900.113 367.631 897.257 363.627 893.619 363.507Z" fill="#FA5752" fill-opacity="0.92"/>
<path d="M680.81 249.712V608.528" stroke="#925D51" stroke-width="5.81" stroke-miterlimit="10"/>
<path d="M619.339 248.436C619.339 248.436 672.97 274.326 741.728 245.39L704.597 149.445L649.595 147.921L619.339 248.436Z" fill="#AC6352"/>
<path d="M719.153 187.058C697.543 214.927 662.447 226.663 625.621 227.568L619.339 248.436C619.339 248.436 672.97 274.326 741.729 245.39L719.153 187.058Z" fill="#984B39"/>
<rect x="203.936" y="663.703" width="555.435" height="14.7486" rx="7.37432" fill="#925D51"/>
<path fill-rule="evenodd" clip-rule="evenodd" d="M482.132 342.752C481.516 342.642 480.89 342.59 480.257 342.59H339.099H338.977C329.226 342.589 321.343 342.588 321.343 383.369V601.958C321.343 596.464 323.835 598.004 327.751 600.423C330.828 602.324 334.784 604.767 339.099 604.767H480.257C481.61 604.767 482.928 604.527 484.194 604.138H622.488C628.487 604.138 633.986 601.702 638.263 599.806C643.706 597.395 647.171 595.859 647.171 601.336V383.408C647.171 342.751 636.212 342.751 622.658 342.752H622.488H482.132Z" fill="#F5C827"/>
<g opacity="0.699997">
<g opacity="0.699997">
<path d="M332.69 456.449V601.558C332.69 591.129 339.828 604.545 348.633 604.545H475.386C481.802 604.545 487.33 597.432 489.859 597.6V601.558C489.859 599.574 490.117 598.456 490.591 597.942C491.07 598.456 491.33 599.574 491.33 601.558V597.599C493.842 597.458 499.309 604.545 505.653 604.545H631.209C639.932 604.545 647.003 591.129 647.003 601.558V369.236C647.003 366.912 646.979 364.737 646.939 362.655L332.69 456.449Z" fill="#DCB21D"/>
</g>
</g>
<path d="M346.78 564.304C346.78 579.032 339.386 590.97 330.264 590.97H293.931C284.809 590.97 277.414 579.032 277.414 564.304V468.306C277.414 453.578 284.809 441.64 293.931 441.64H330.264C339.386 441.64 346.78 453.578 346.78 468.306V564.304Z" fill="#EBAFB2"/>
<path d="M361.886 574.939C361.886 590.957 351.158 603.942 337.923 603.942H285.205C271.971 603.942 261.242 590.957 261.242 574.939V470.527C261.242 454.509 271.971 441.524 285.205 441.524H337.923C351.158 441.524 361.886 454.509 361.886 470.527V574.939Z" fill="#CAA41E"/>
<path d="M731.853 575.188C731.853 591.256 721.273 604.282 708.222 604.282H656.234C643.183 604.282 632.603 591.256 632.603 575.188V470.449C632.603 454.381 643.183 441.355 656.234 441.355H708.222C721.273 441.355 731.853 454.381 731.853 470.449V575.188Z" fill="#CAA41E"/>
<path d="M300.341 697.78C300.341 702.872 297.424 707 293.825 707C290.226 707 287.308 702.872 287.308 697.78V665.928C287.308 660.836 290.226 656.708 293.825 656.708C297.424 656.708 300.341 660.836 300.341 665.928V697.78Z" fill="#925D51"/>
<path d="M705.085 696.131C705.085 701.223 702.168 705.351 698.568 705.351C694.97 705.351 692.052 701.223 692.052 696.131V664.278C692.052 659.187 694.97 655.059 698.568 655.059C702.168 655.059 705.085 659.187 705.085 664.278V696.131Z" fill="#925D51"/>
<path d="M715.992 441.524H697.719C688.545 441.524 681.108 453.469 681.108 468.203V601.599H309.842V468.203C309.842 453.469 302.405 441.524 293.231 441.524H274.959C265.785 441.524 258.348 453.469 258.348 468.203V650.956C258.348 658.668 260.397 665.593 263.654 670.465C266.686 675.685 270.995 678.968 275.79 678.968L715.992 677.635C725.166 677.635 732.603 665.691 732.603 650.956V468.203C732.603 453.469 725.166 441.524 715.992 441.524Z" fill="#F5C827"/>
<path d="M404.466 455.54H336.859C334.287 455.54 332.202 458.31 332.202 461.727V551.54C332.202 554.957 334.287 557.726 336.859 557.726H404.466C407.038 557.726 409.123 554.957 409.123 551.54V461.727C409.123 458.31 407.038 455.54 404.466 455.54Z" fill="white"/>
<path d="M666.09 465.303L604.609 453.084C602.27 452.619 599.955 454.977 599.437 458.35L585.834 547.009C585.317 550.382 586.793 553.493 589.132 553.958L650.613 566.176C652.952 566.641 655.268 564.283 655.785 560.91L669.388 472.251C669.906 468.878 668.429 465.767 666.09 465.303Z" fill="white"/>
<path fill-rule="evenodd" clip-rule="evenodd" d="M444.379 621.979H325.472C316.592 621.979 309.394 608.987 309.394 592.96V566.843C309.394 550.816 316.592 537.824 325.472 537.824H480.62C481.971 537.824 483.283 538.125 484.537 538.692H659.105C671.588 538.692 681.707 551.55 681.707 567.412V593.259C681.707 609.121 671.588 621.979 659.105 621.979H480.62H444.379Z" fill="#FFE792"/>
<path d="M441.769 299.532C439.454 299.32 437.296 298.116 435.711 296.182C431.569 291.123 425.637 279.36 434.133 258.467C449.95 219.559 507.793 225.396 521.589 253.668C531.406 273.781 541.171 277.771 535.902 283.822C530.818 289.663 470.574 302.18 441.769 299.532Z" fill="#FF504A"/>
<path d="M543.721 533.283C543.658 533.293 543.591 533.303 543.529 533.313C531.019 535.388 518.334 537.294 505.612 538.413C504.883 538.474 504.153 538.539 503.422 538.59C489.96 539.68 476.461 539.844 463.102 538.347C458.721 537.857 454.351 537.179 450.027 536.279C440.361 534.268 433.846 523.866 435.41 512.822C436.885 502.455 437.848 492.632 438.482 483.398C438.576 482.026 438.668 480.669 438.743 479.326C439.385 468.548 439.593 458.622 439.661 449.606C439.664 448.839 439.67 448.081 439.673 447.331C439.673 446.991 439.679 446.653 439.679 446.322C439.681 445.807 439.681 445.297 439.681 444.794C439.687 444.449 439.687 444.11 439.687 443.779C439.687 443.075 439.69 442.389 439.687 441.704C439.696 439.596 439.69 437.548 439.696 435.56V435.032C439.699 428.152 439.724 421.992 439.967 416.592C439.975 416.345 439.984 416.105 440.001 415.863C440.055 414.742 440.105 413.629 440.153 412.533C440.195 411.47 440.241 410.417 440.275 409.375C440.375 406.451 440.444 403.633 440.484 400.942C440.509 398.678 440.509 396.509 440.478 394.451C440.441 392.167 440.369 390.028 440.256 388.045C440.212 387.39 440.173 386.712 440.126 386.017C440.055 384.964 439.978 383.871 439.898 382.748C439.85 382.066 439.799 381.379 439.738 380.68C439.712 380.375 439.69 380.066 439.664 379.753C439.661 379.675 439.652 379.6 439.648 379.529C439.613 379.097 439.578 378.666 439.545 378.227C439.507 377.802 439.469 377.376 439.433 376.946C439.373 376.196 439.308 375.431 439.235 374.659C438.924 371.059 438.562 367.28 438.194 363.407C438.073 362.193 437.955 360.961 437.836 359.728C437.646 357.817 437.454 355.884 437.267 353.962C437.139 352.72 437.016 351.478 436.894 350.237C435.028 331.56 433.273 313.678 433.896 308.003C434.977 298.177 476.772 272.24 476.772 272.24L501.86 271.343C501.86 271.343 537.075 287.495 543.571 297.245C543.606 297.293 543.635 297.342 543.667 297.387C545.14 299.684 546.068 302.875 546.599 306.819C547.074 310.287 547.243 314.332 547.208 318.869C547.192 322.098 547.068 325.579 546.885 329.27C546.692 333.183 546.429 337.336 546.139 341.685C546.056 342.95 545.969 344.231 545.882 345.528C545.792 346.846 545.706 348.176 545.617 349.522C545.56 350.391 545.504 351.269 545.447 352.15C545.294 354.473 545.144 356.84 545.009 359.237C544.966 360.011 544.918 360.792 544.874 361.576C544.845 362.069 544.82 362.571 544.797 363.068C544.769 363.576 544.743 364.083 544.718 364.594V364.604C544.695 365.075 544.669 365.54 544.65 366.008C544.619 366.518 544.599 367.03 544.577 367.544C544.535 368.484 544.491 369.426 544.458 370.377C544.423 371.16 544.395 371.952 544.369 372.741C544.359 372.881 544.355 373.028 544.355 373.17C544.331 373.68 544.314 374.192 544.302 374.699L544.295 374.965L544.289 375.093C544.272 375.76 544.251 376.439 544.236 377.111C544.212 377.92 544.195 378.726 544.177 379.529C544.17 379.9 544.167 380.283 544.161 380.66C544.153 380.993 544.15 381.337 544.144 381.675C544.144 381.847 544.141 382.013 544.141 382.188C544.132 382.654 544.126 383.119 544.122 383.598C544.116 384.391 544.115 385.194 544.115 386.017V387.319C544.116 389.595 544.138 391.975 544.177 394.451C544.192 395.472 544.212 396.509 544.233 397.56C544.254 398.675 544.281 399.801 544.305 400.942C544.369 403.34 544.438 405.789 544.523 408.282C544.532 408.647 544.542 409.008 544.557 409.375C544.563 409.524 544.566 409.672 544.571 409.821C544.598 410.634 544.625 411.45 544.659 412.277C544.704 413.464 544.752 414.664 544.794 415.863C544.842 417.162 544.92 418.538 545.021 419.988C545.144 421.803 545.303 423.727 545.495 425.761C545.537 426.236 545.585 426.718 545.636 427.201C545.714 427.981 545.792 428.776 545.888 429.583C545.94 430.089 545.992 430.593 546.052 431.108C546.088 431.432 546.125 431.758 546.164 432.086C546.302 433.308 546.452 434.565 546.61 435.844C546.628 435.986 546.645 436.127 546.661 436.269C546.743 436.917 546.831 437.567 546.91 438.23C547.071 439.492 547.246 440.78 547.422 442.085C547.474 442.451 547.522 442.823 547.573 443.193C547.878 445.415 548.207 447.693 548.55 450.023C548.61 450.429 548.675 450.846 548.736 451.262C548.873 452.179 549.014 453.103 549.155 454.034C549.65 457.276 550.173 460.593 550.72 463.963C551.358 467.859 552.023 471.824 552.712 475.818C553.277 479.103 553.861 482.406 554.452 485.71C555.833 493.438 557.27 501.163 558.688 508.616C560.9 520.221 554.04 531.569 543.721 533.283Z" fill="white"/>
<path d="M546.6 306.819C528.272 311.292 511.269 312.569 497.839 312.569C495.399 312.569 493.078 312.527 490.886 312.456C470.138 311.766 456.643 308.341 456.077 308.199L457.054 303.281L458.029 298.364H458.032C458.296 298.432 471.533 301.749 491.381 302.387C504.786 302.815 523.311 302.052 543.573 297.245C543.606 297.293 543.637 297.341 543.667 297.387C545.14 299.684 546.07 302.875 546.6 306.819Z" fill="#1DB776" fill-opacity="0.56"/>
<path d="M547.207 318.869C547.19 322.099 547.066 325.579 546.883 329.27C528.958 333.609 512.245 334.887 498.792 334.887C495.46 334.887 492.329 334.809 489.428 334.679C468.693 333.755 455.233 330.178 454.67 330.025L456.709 320.212C456.841 320.249 470.073 323.748 490.01 324.612C504.494 325.245 524.973 324.548 547.207 318.869Z" fill="#1DB776" fill-opacity="0.56"/>
<path d="M546.14 341.685C546.057 342.95 545.97 344.232 545.883 345.528C545.793 346.846 545.707 348.176 545.618 349.522C545.562 350.392 545.505 351.269 545.447 352.15C528.558 356.037 512.765 357.227 499.761 357.227C495.513 357.227 491.569 357.101 487.976 356.903C467.257 355.742 453.83 352.011 453.267 351.855L455.392 342.066C455.523 342.1 468.723 345.75 488.645 346.843C503.177 347.64 523.759 347.171 546.14 341.685Z" fill="#1DB776" fill-opacity="0.56"/>
<path d="M544.72 364.594V364.604C544.697 365.076 544.672 365.54 544.652 366.008C544.623 366.52 544.602 367.03 544.579 367.543C544.537 368.484 544.495 369.426 544.46 370.377C544.426 371.16 544.397 371.952 544.373 372.741C544.362 372.881 544.357 373.028 544.357 373.17C544.333 373.68 544.317 374.192 544.306 374.699L544.297 374.965C528.313 378.481 513.321 379.597 500.729 379.597C495.555 379.597 490.789 379.411 486.521 379.122C465.816 377.727 452.423 373.843 451.863 373.68L454.073 363.917H454.076C454.197 363.953 457.542 364.912 463.334 366.028C469.126 367.144 477.363 368.416 487.277 369.074C501.782 370.036 522.33 369.802 544.72 364.594Z" fill="#1DB776" fill-opacity="0.56"/>
<path d="M452.755 385.77L451.609 390.638L452.758 385.77H452.755ZM544.181 394.45C544.142 391.974 544.12 389.595 544.117 387.318C521.4 392.43 500.564 392.443 485.913 391.302C466.099 389.764 452.998 385.841 452.758 385.77L451.609 390.638L450.461 395.506C451.018 395.675 464.374 399.713 485.066 401.342C489.99 401.733 495.578 401.994 501.696 401.994C514.136 401.994 528.734 400.906 544.235 397.56C544.216 396.508 544.196 395.472 544.181 394.45Z" fill="#1DB776" fill-opacity="0.56"/>
<path d="M545.022 419.988C529.67 423.314 515.155 424.42 502.658 424.42C495.589 424.42 489.169 424.066 483.608 423.566C462.934 421.695 449.613 417.509 449.054 417.333L450.247 412.478L451.435 407.623H451.437C451.649 407.691 464.721 411.766 484.544 413.536C499.568 414.876 521.116 415.076 544.573 409.82C544.599 410.635 544.628 411.451 544.66 412.276C544.705 413.463 544.753 414.664 544.797 415.864C544.845 417.161 544.924 418.537 545.022 419.988Z" fill="#1DB776" fill-opacity="0.56"/>
<path d="M547.424 442.084C531.617 445.674 516.599 446.872 503.612 446.872C495.585 446.872 488.337 446.413 482.153 445.785C461.491 443.681 448.207 439.342 447.65 439.16L450.118 429.478V429.474C450.246 429.518 463.305 433.765 483.176 435.765C498.805 437.342 521.526 437.762 546.166 432.086C546.304 433.31 546.454 434.565 546.612 435.843C546.63 435.986 546.647 436.126 546.664 436.269C546.744 436.916 546.833 437.567 546.912 438.229C547.073 439.493 547.248 440.779 547.424 442.084Z" fill="#1DB776" fill-opacity="0.56"/>
<path d="M550.721 463.962C534.135 468.004 518.286 469.347 504.553 469.347C495.567 469.347 487.487 468.773 480.694 468.004C460.047 465.663 446.797 461.175 446.243 460.983L448.797 451.331C448.925 451.372 461.949 455.771 481.805 457.998C498.333 459.852 522.808 460.505 549.157 454.033C549.651 457.276 550.173 460.593 550.721 463.962Z" fill="#1DB776" fill-opacity="0.56"/>
<path d="M554.452 485.711C536.929 490.326 520.092 491.854 505.487 491.854C495.535 491.854 486.623 491.146 479.237 490.222C458.607 487.645 445.391 483.005 444.84 482.81L446.16 477.996L447.476 473.184L447.479 473.187C447.684 473.257 460.658 477.781 480.437 480.23C497.964 482.398 524.456 483.315 552.712 475.817C553.276 479.102 553.861 482.406 554.452 485.711Z" fill="#1DB776" fill-opacity="0.56"/>
<path d="M486.983 519.72C487.831 478.152 481.581 429.784 481.633 388.204C481.681 350.922 484.073 313.909 484.047 276.627C476.236 277.296 472.881 278.815 472.881 278.815C472.881 278.815 465.412 286.071 441.109 295.089C418.191 303.593 422.451 399.977 423.844 453.924C425.235 507.872 424.683 542.075 469.736 548.631C473.968 549.247 478.124 549.79 482.194 550.245C482.263 537.909 486.732 532.087 486.983 519.72Z" fill="#FB4C47"/>
<path d="M438.108 410.113C437.623 410.113 437.187 409.727 437.082 409.164C436.96 408.52 437.322 407.884 437.89 407.745C438.464 407.605 451.987 404.099 456.649 385.662C456.808 385.026 457.391 384.662 457.95 384.842C458.507 385.024 458.829 385.688 458.668 386.323C453.648 406.184 438.95 409.936 438.326 410.087C438.253 410.105 438.179 410.113 438.108 410.113Z" fill="#B63A37"/>
<path d="M477.438 511.531C477.002 511.531 476.636 511.144 476.611 510.641C472.984 436.205 470.099 363.444 474.572 291.627C474.605 291.107 475.004 290.718 475.458 290.753C475.916 290.789 476.259 291.241 476.227 291.761C471.758 363.467 474.642 436.164 478.267 510.535C478.292 511.056 477.942 511.502 477.485 511.53C477.469 511.531 477.454 511.531 477.438 511.531Z" fill="#B63A37"/>
<path d="M565.184 332.843C566.27 294.44 550.026 284.304 517.609 278.769C517.483 278.747 517.359 278.726 517.233 278.706C516.712 285.05 516.902 291.493 517.266 297.827C517.848 307.956 518.88 318.027 519.238 328.173C520.736 370.512 524.374 399.268 521.387 454.838C519.141 496.604 525.004 518.525 526.031 550.173C544.433 546.972 558.916 538.444 567.835 521.138C584.566 488.67 564.099 371.245 565.184 332.843Z" fill="#FB4C47"/>
<path d="M561.377 408.818C561.298 408.818 561.221 408.81 561.141 408.788C560.924 408.732 539.371 402.709 535.728 367.016C535.661 366.36 536.074 365.766 536.651 365.691C537.232 365.61 537.749 366.085 537.815 366.741C541.289 400.774 561.407 406.404 561.611 406.455C562.176 406.602 562.53 407.245 562.4 407.889C562.29 408.442 561.856 408.818 561.377 408.818Z" fill="#B63A37"/>
<path d="M528.504 504.702C528.105 504.702 527.753 504.375 527.686 503.911C526.167 493.402 526.75 465.209 527.316 437.946C527.745 417.205 528.15 397.616 527.676 385.814C526.075 345.86 521.28 290.059 521.232 289.501C521.187 288.982 521.52 288.52 521.975 288.469C522.428 288.419 522.838 288.797 522.881 289.315C522.929 289.875 527.729 345.722 529.333 385.726C529.808 397.594 529.402 417.215 528.972 437.99C528.409 465.167 527.827 493.27 529.322 503.605C529.397 504.118 529.091 504.605 528.639 504.689C528.594 504.697 528.549 504.702 528.504 504.702Z" fill="#B63A37"/>
<path d="M499.031 190.693L483.091 197.286C483.091 197.286 478.309 204.794 472.04 203.245C469.525 202.623 466.773 200.544 463.991 195.946C454.273 179.87 477.712 157.598 491.799 161.341C498.708 163.175 500.581 170.276 500.693 177.034C500.811 184.05 499.031 190.693 499.031 190.693Z" fill="#002014"/>
<path d="M499.03 190.693L483.09 197.286C483.09 197.286 478.309 204.794 472.039 203.245C472.039 194.919 482.296 179.696 500.693 177.034C500.81 184.05 499.03 190.693 499.03 190.693Z" fill="#FFD339"/>
<path d="M498.766 158.579C498.478 158.579 498.165 158.617 497.826 158.693C497 158.882 496.465 159.339 496.144 160.132C494.711 163.663 497.732 172.072 499.89 177.039C501.223 171.528 502.822 162.317 500.563 159.414C500.128 158.856 499.536 158.579 498.766 158.579ZM500.141 181.186C499.782 181.186 499.446 180.966 499.269 180.601C498.505 179.043 491.886 165.204 494.329 159.179C494.916 157.73 495.991 156.789 497.435 156.461C499.896 155.903 501.309 156.938 502.06 157.904C505.983 162.947 501.604 178.632 501.092 180.404C500.967 180.833 500.633 181.138 500.237 181.181C500.205 181.184 500.173 181.186 500.141 181.186Z" fill="#FFD339"/>
<path d="M512.244 164.179C512.149 164.179 512.053 164.186 511.957 164.202C508.579 164.714 504.497 172.873 502.339 178.034C506.825 175.883 513.941 171.775 514.886 168.039C515.099 167.198 514.956 166.454 514.44 165.696C513.745 164.678 513.025 164.179 512.244 164.179ZM500.421 181.258C500.152 181.258 499.889 181.136 499.698 180.907C499.423 180.579 499.345 180.099 499.497 179.682C500.128 177.961 505.826 162.836 511.693 161.945C512.817 161.775 514.479 162.043 516.018 164.298C516.922 165.623 517.196 167.135 516.807 168.668C515.193 175.045 502.234 180.579 500.763 181.19C500.651 181.237 500.536 181.258 500.421 181.258Z" fill="#FFD339"/>
<path d="M470.834 205.609C467.353 205.016 463.438 202.903 460.98 197.066C455.176 183.287 469.057 171.659 469.198 171.543C469.482 171.31 469.878 171.384 470.083 171.706C470.288 172.028 470.224 172.48 469.94 172.714C469.808 172.823 456.779 183.754 462.122 196.442C466.89 207.762 477.389 203.779 477.832 203.602C478.165 203.473 478.525 203.673 478.639 204.049C478.753 204.425 478.578 204.836 478.247 204.966C478.184 204.991 474.789 206.281 470.834 205.609Z" fill="#002014"/>
<path d="M517.018 207.312C517.018 207.312 523.239 237.057 514.598 256.31C505.958 275.564 497.276 280.808 509.684 286.789C522.092 292.769 536.208 281.378 545.681 287.303C557.118 294.455 544.294 234.427 538.579 209.024C532.728 183.031 504.946 180.122 504.946 180.122L517.018 207.312Z" fill="#002014"/>
<path d="M533.463 228.685C533.463 228.685 544.579 199.695 523.737 186.048C502.893 172.402 481.84 182.708 476.231 198.42C470.622 214.131 479.21 224.466 479.21 224.466L533.463 228.685Z" fill="#002014"/>
<path d="M497.74 289.896C503.756 291.799 506.163 288.762 508.01 286.503L509.254 274.221L509.981 267.058L510.132 266.003L507.366 265.654L486.957 258.951L484.197 273.706L482.885 280.703C485.508 283.523 488.994 287.131 497.74 289.896Z" fill="#FBB990"/>
<path d="M509.252 274.221C502.928 277.468 490.455 275.993 484.195 273.706C484.174 273.703 484.158 273.695 484.136 273.686L486.956 258.95L507.365 265.653L510.131 266.003L509.98 267.058L509.252 274.221Z" fill="#181818"/>
<path d="M525.917 228.864C525.917 228.864 538.035 224.853 535.657 237.044C533.038 250.467 523.391 246.657 521.73 245.787L525.917 228.864Z" fill="#FB9476"/>
<path d="M517.209 251.159C516.539 256.265 519.642 261.041 524.127 261.804C528.614 262.568 532.808 259.034 533.478 253.926C534.05 249.569 531.87 245.462 528.436 243.873C528.431 243.881 528.425 243.891 528.419 243.906C527.842 244.078 527.721 244.585 527.667 245.136C530.712 246.37 532.671 249.93 532.177 253.705C531.614 257.993 528.092 260.963 524.322 260.322C520.557 259.682 517.948 255.668 518.511 251.38C518.764 249.443 519.622 247.777 520.833 246.593C521.148 246.289 521.485 246.014 521.841 245.775C521.524 245.449 521.223 245.07 520.957 244.636C520.63 244.868 520.31 245.131 520.016 245.419C518.553 246.832 517.513 248.832 517.209 251.159Z" fill="white"/>
<path d="M527.272 241.802C527.248 241.798 527.225 241.792 527.202 241.785C526.851 241.681 526.639 241.272 526.731 240.871C528.079 234.955 531.905 232.904 532.066 232.82C532.396 232.649 532.788 232.813 532.939 233.191C533.089 233.567 532.945 234.011 532.616 234.183C532.472 234.259 529.188 236.052 528.005 241.249C527.919 241.623 527.6 241.858 527.272 241.802Z" fill="#FA7764"/>
<path d="M531.608 239.312C531.422 239.28 531.249 239.159 531.144 238.962C531.125 238.929 530.315 237.465 529.156 237.449C528.794 237.447 528.502 237.106 528.505 236.692C528.51 236.278 528.807 235.947 529.171 235.952C531.06 235.973 532.219 238.091 532.267 238.181C532.456 238.535 532.357 238.995 532.047 239.211C531.91 239.305 531.755 239.337 531.608 239.312Z" fill="#FA7764"/>
<path d="M532.562 227.191C531.808 232.04 530.648 236.751 529.204 241.169C528.554 243.171 527.838 245.11 527.081 246.975C521.741 260.116 514.065 269.585 507.934 270.404C498.227 271.704 487.208 266.304 481.805 251.889C480.922 249.535 479.998 246.69 479.555 243.338C479.496 242.873 479.438 242.396 479.388 241.909C477.805 226.933 481.141 205.583 481.141 205.583C489.097 192.058 506.202 195.663 516.124 197.522C526.054 199.385 536.019 205.004 532.562 227.191Z" fill="#FFC29C"/>
<path d="M505.249 262.664C503.141 262.307 501.897 261.219 501.843 261.172C501.556 260.917 501.504 260.447 501.728 260.121C501.95 259.795 502.362 259.735 502.648 259.988C502.67 260.007 503.786 260.954 505.646 261.214C507.542 261.477 508.813 260.979 508.825 260.974C509.166 260.836 509.543 261.04 509.665 261.427C509.787 261.815 509.611 262.244 509.271 262.383C509.209 262.409 507.714 263.011 505.487 262.701C505.406 262.691 505.327 262.678 505.249 262.664Z" fill="#FB9476"/>
<path d="M468.301 406.402C467.879 406.402 467.487 406.096 467.35 405.614C465.92 400.602 464.934 394.947 464.892 394.708C464.786 394.091 465.138 393.493 465.68 393.37C466.22 393.249 466.748 393.65 466.854 394.268C466.864 394.326 467.86 400.03 469.252 404.912C469.422 405.51 469.134 406.152 468.609 406.346C468.507 406.384 468.403 406.402 468.301 406.402Z" fill="#108A57"/>
<path d="M473.64 404.362C473.222 404.362 472.834 404.064 472.693 403.589C471.205 398.599 470.154 392.963 470.11 392.726C469.995 392.11 470.341 391.505 470.882 391.376C471.422 391.246 471.951 391.64 472.066 392.254C472.076 392.312 473.138 397.998 474.586 402.857C474.764 403.453 474.483 404.099 473.961 404.301C473.853 404.342 473.746 404.362 473.64 404.362Z" fill="#108A57"/>
<path d="M478.982 402.322C478.57 402.322 478.185 402.031 478.039 401.564C476.495 396.598 475.378 390.979 475.331 390.742C475.211 390.129 475.548 389.52 476.088 389.383C476.624 389.245 477.161 389.629 477.282 390.244C477.293 390.3 478.42 395.968 479.924 400.804C480.109 401.396 479.835 402.045 479.316 402.256C479.206 402.3 479.092 402.322 478.982 402.322Z" fill="#108A57"/>
<path d="M484.318 400.283C483.911 400.283 483.53 399.998 483.38 399.538C481.777 394.597 480.597 388.996 480.547 388.76C480.418 388.149 480.749 387.534 481.287 387.389C481.824 387.243 482.362 387.62 482.492 388.231C482.503 388.288 483.696 393.938 485.256 398.75C485.447 399.339 485.182 399.995 484.664 400.212C484.551 400.26 484.433 400.283 484.318 400.283Z" fill="#108A57"/>
<path d="M489.659 398.243C489.258 398.243 488.878 397.965 488.726 397.513C487.066 392.595 485.818 387.012 485.768 386.777C485.631 386.168 485.955 385.549 486.49 385.395C487.026 385.241 487.569 385.61 487.705 386.219C487.718 386.274 488.976 391.907 490.591 396.696C490.789 397.282 490.533 397.942 490.017 398.167C489.899 398.218 489.778 398.243 489.659 398.243Z" fill="#108A57"/>
<path d="M494.996 396.204C494.599 396.204 494.224 395.932 494.068 395.487C492.351 390.594 491.039 385.028 490.984 384.793C490.841 384.187 491.158 383.563 491.692 383.4C492.226 383.238 492.773 383.599 492.915 384.207C492.928 384.263 494.253 389.878 495.924 394.642C496.129 395.227 495.879 395.889 495.367 396.123C495.245 396.177 495.12 396.204 494.996 396.204Z" fill="#108A57"/>
<path d="M500.335 394.164C499.943 394.164 499.572 393.899 499.412 393.462C497.638 388.592 496.26 383.044 496.202 382.811C496.052 382.206 496.362 381.577 496.894 381.407C497.425 381.236 497.978 381.589 498.126 382.195C498.141 382.251 499.53 387.848 501.259 392.589C501.47 393.169 501.228 393.836 500.718 394.076C500.593 394.136 500.463 394.164 500.335 394.164Z" fill="#108A57"/>
<path d="M529.102 272.812C528.898 275.781 528.414 278.745 527.525 281.516C527.3 282.224 527.045 282.918 526.76 283.597V283.6C525.328 287.051 523.161 290.092 519.976 292.315C519.976 292.315 504.446 299.832 486.152 290.607H486.149C485.11 290.082 484.062 289.5 483.004 288.863C482.081 288.306 481.156 287.705 480.228 287.058C472.282 281.516 469.132 274.046 468.271 266.932C468.194 266.298 468.135 265.67 468.093 265.039C467.755 260.023 468.466 255.297 469.317 251.696C469.375 251.457 469.432 251.222 469.489 250.995C470.409 247.326 471.417 244.991 471.417 244.991C471.417 244.991 475.53 242.956 480.925 242.022C482.977 241.667 485.215 241.472 487.484 241.609C490.059 241.762 492.675 242.345 495.104 243.607C512.45 252.618 521.236 256.642 526.269 248.907C526.269 248.907 527.143 251.785 527.94 256.12C528.053 256.736 528.162 257.377 528.271 258.046C528.565 259.884 528.828 261.913 529.001 264.051C529.23 266.851 529.308 269.83 529.102 272.812Z" fill="#0CAD69"/>
<path d="M528.272 258.046C528.041 258.453 527.78 258.866 527.495 259.276C525.298 262.437 521.028 266.077 513.014 266.077C512.522 266.077 512.019 266.064 511.5 266.034C503.728 265.612 497.67 261.959 491.809 258.427C484.814 254.212 478.205 250.228 469.436 252.331L469.318 251.695L469.201 251.06C469.299 251.038 469.396 251.015 469.491 250.995C478.516 248.947 485.236 252.995 492.343 257.279C498.093 260.742 504.04 264.327 511.554 264.733C518.364 265.107 523.413 263.014 526.566 258.518C527.132 257.711 527.583 256.895 527.94 256.12C528.055 256.734 528.163 257.377 528.272 258.046Z" fill="#108E59"/>
<path d="M527.523 281.515C527.298 282.224 527.043 282.918 526.758 283.596V283.6C523.853 285.499 520.371 286.801 516.344 287.49C514.055 287.884 511.59 288.077 508.959 288.077C505.535 288.077 501.831 287.746 497.878 287.084C486.018 285.087 475.879 280.728 475.776 280.682L476.185 279.467C476.285 279.511 486.324 283.827 498.064 285.799C507.403 287.362 519.506 287.692 527.523 281.515Z" fill="#108E59"/>
<path d="M500.103 385.71L464.939 398.785C464.939 398.785 464.474 396.452 463.754 392.485C463.594 391.6 463.419 390.632 463.238 389.59C462.74 386.773 462.169 383.413 461.565 379.664C461.414 378.714 461.261 377.742 461.107 376.743C460.619 373.607 460.118 370.252 459.633 366.745C459.499 365.773 459.364 364.791 459.233 363.796C458.796 360.517 458.373 357.136 457.988 353.703C457.876 352.708 457.765 351.709 457.659 350.706C457.298 347.309 456.979 343.885 456.714 340.489C456.631 339.472 456.557 338.457 456.488 337.445C456.246 333.906 456.068 330.417 455.979 327.044C455.953 326.006 455.933 324.979 455.923 323.964C455.882 320.185 455.965 316.582 456.202 313.255C456.279 312.164 456.374 311.108 456.486 310.084C456.563 309.342 456.654 308.617 456.75 307.912C457.21 304.616 457.847 301.628 458.616 298.915C458.936 297.776 459.282 296.688 459.647 295.646C466.156 277.03 478.941 273.361 478.941 273.361C488.409 274.431 492.572 285.951 492.572 285.951C490.587 288.105 489.153 291.064 488.17 294.615C487.915 295.535 487.69 296.496 487.496 297.491C486.97 300.157 486.65 303.085 486.502 306.2C486.454 307.167 486.424 308.152 486.41 309.15C486.368 312.061 486.456 315.105 486.653 318.233C486.712 319.21 486.784 320.192 486.864 321.181C487.109 324.193 487.444 327.266 487.847 330.351C487.976 331.335 488.11 332.313 488.25 333.295C488.689 336.365 489.189 339.439 489.731 342.471C489.903 343.446 490.083 344.415 490.264 345.382C490.848 348.5 491.471 351.56 492.108 354.514C492.314 355.476 492.522 356.425 492.734 357.363C493.438 360.534 494.157 363.559 494.848 366.369C495.085 367.334 495.322 368.278 495.553 369.191C496.406 372.561 497.206 375.55 497.89 378.028C498.172 379.05 498.432 379.982 498.669 380.822C499.552 383.925 500.103 385.71 500.103 385.71Z" fill="#0CAD69"/>
<path d="M488.166 294.615C487.912 295.536 487.686 296.495 487.493 297.49C481.269 296.616 469.963 295.803 458.613 298.916C458.933 297.776 459.279 296.687 459.644 295.647C465.285 294.258 470.704 293.796 475.175 293.744C480.454 293.68 484.996 294.147 488.166 294.615Z" fill="#108E59"/>
<path d="M486.499 306.2C486.451 307.166 486.422 308.151 486.407 309.15C478.979 308.787 467.311 309.128 456.199 313.255C456.277 312.165 456.371 311.109 456.483 310.084C463.849 307.505 471.193 306.525 476.959 306.217C480.552 306.025 483.8 306.066 486.499 306.2Z" fill="#108E59"/>
<path d="M486.861 321.181C478.932 321.333 467.026 322.462 455.977 327.046C455.95 326.008 455.93 324.979 455.918 323.964C464.053 320.719 472.367 319.295 478.74 318.69C481.64 318.414 484.313 318.283 486.648 318.235C486.709 319.21 486.781 320.192 486.861 321.181Z" fill="#108E59"/>
<path d="M488.25 333.296C480.061 333.924 467.87 335.679 456.713 340.489C456.632 339.471 456.557 338.457 456.489 337.446C467.71 332.713 479.673 330.978 487.847 330.352C487.977 331.334 488.111 332.314 488.25 333.296Z" fill="#108E59"/>
<path d="M490.261 345.381C481.939 346.454 469.379 348.773 457.985 353.704C457.873 352.709 457.762 351.71 457.656 350.705C469.104 345.83 481.426 343.537 489.728 342.47C489.9 343.447 490.08 344.416 490.261 345.381Z" fill="#108E59"/>
<path d="M492.733 357.363C484.39 358.862 471.379 361.763 459.631 366.746C459.497 365.774 459.364 364.792 459.231 363.796C470.94 358.902 483.756 356.025 492.108 354.513C492.313 355.477 492.521 356.426 492.733 357.363Z" fill="#108E59"/>
<path d="M495.557 369.192C487.305 371.104 473.772 374.643 461.569 379.664C461.418 378.715 461.264 377.743 461.11 376.744C473.259 371.79 486.594 368.291 494.851 366.368C495.089 367.334 495.326 368.278 495.557 369.192Z" fill="#108E59"/>
<path d="M498.668 380.822C490.677 383.112 476.533 387.406 463.754 392.484C463.593 391.6 463.42 390.631 463.237 389.59C475.941 384.562 489.892 380.325 497.889 378.028C498.172 379.05 498.431 379.982 498.668 380.822Z" fill="#108E59"/>
<path d="M486.151 290.606H486.148C485.888 290.59 485.62 290.555 485.343 290.495C484.498 290.313 483.721 289.742 483.003 288.863C476.957 281.438 475.4 252.134 475.4 252.134C475.4 252.134 477.666 245.757 480.925 242.023C482.975 241.669 485.215 241.474 487.483 241.611C487.953 247.114 489.579 264.656 491.469 269.483C493.644 275.027 493.366 291.045 486.151 290.606Z" fill="#128E5A"/>
<path d="M529.102 272.812C520.268 280.618 500.987 276.124 483.382 270.217C477.367 268.199 472.356 267.256 468.271 266.934C468.197 266.299 468.136 265.67 468.093 265.041C475.746 265.586 485.998 268.035 498.698 271.32C517.534 276.19 526.114 267.97 529.004 264.052C529.232 266.852 529.309 269.833 529.102 272.812Z" fill="#108E59"/>
<path d="M516.337 233.102C516.046 235.219 516.648 237.085 517.683 237.27C518.723 237.457 519.802 235.889 520.093 233.771C520.208 232.937 520.183 232.145 520.049 231.476C521.896 231.897 522.689 230.688 522.689 230.688C521.463 230.666 519.9 230.087 519.162 229.785C518.902 229.675 518.742 229.603 518.742 229.603C517.707 229.416 516.629 230.981 516.337 233.102Z" fill="#181818"/>
<path d="M518.743 229.602C518.743 229.602 518.902 229.673 519.165 229.785C519.035 229.692 518.895 229.628 518.743 229.602Z" fill="#181818"/>
<path d="M529.207 241.169C528.555 243.171 527.841 245.11 527.084 246.975C526.249 246.983 525.353 246.917 524.43 246.768C520.304 246.104 517.15 244.047 517.384 242.176C517.618 240.306 521.152 239.331 525.273 239.993C526.743 240.23 528.091 240.644 529.207 241.169Z" fill="#FD9B7E"/>
<path d="M498.925 238.504C498.689 240.395 495.121 241.38 490.953 240.708C486.785 240.034 483.597 237.958 483.834 236.067C484.068 234.177 487.638 233.19 491.805 233.863C495.973 234.537 499.161 236.613 498.925 238.504Z" fill="#FD9B7E"/>
<path d="M481.72 226.549C481.945 224.759 481.276 222.983 479.994 221.92C476.813 219.286 472.554 217.794 470.443 222.583C466.526 231.472 473.644 243.384 479.802 241.815L481.72 226.549Z" fill="#FBB990"/>
<path d="M483.011 241.231C482.892 241.357 482.774 241.478 482.653 241.589C482.3 241.922 481.939 242.205 481.571 242.44C480.896 242.875 480.213 243.159 479.558 243.339C479.496 242.87 479.439 242.395 479.393 241.908C479.861 241.781 480.342 241.595 480.818 241.322C481.203 241.115 481.589 240.852 481.955 240.526C482.101 240.395 482.249 240.252 482.387 240.105C482.617 239.85 482.945 239.906 483.117 240.224C483.289 240.536 483.246 240.993 483.011 241.231Z" fill="#FB9476"/>
<path d="M477.051 235.635C476.729 235.581 476.483 235.258 476.491 234.877C476.619 228.876 473.276 225.672 473.243 225.64C472.963 225.377 472.921 224.907 473.151 224.587C473.381 224.266 473.794 224.218 474.076 224.479C474.233 224.627 477.952 228.151 477.808 234.912C477.799 235.326 477.496 235.654 477.134 235.642C477.105 235.642 477.079 235.639 477.051 235.635Z" fill="#FB9476"/>
<path d="M472.85 231.431C472.699 231.405 472.556 231.32 472.45 231.18C472.213 230.867 472.242 230.396 472.517 230.125C472.594 230.049 474.442 228.255 476.517 228.881C476.868 228.987 477.077 229.398 476.984 229.799C476.89 230.198 476.528 230.433 476.179 230.33C474.783 229.909 473.391 231.246 473.376 231.259C473.225 231.406 473.032 231.463 472.85 231.431Z" fill="#FB9476"/>
<path d="M511.528 241.116H511.532H511.528ZM508.225 244.898C507.959 244.853 507.723 244.625 507.67 244.272C507.619 243.941 507.789 243.617 508.056 243.471C509.675 242.596 511.235 241.472 511.507 240.997C511.283 239.631 510.395 234.203 510.07 232.215C510.004 231.808 510.239 231.421 510.597 231.344C510.953 231.268 511.296 231.535 511.363 231.941C511.699 233.994 512.634 239.709 512.821 240.84C512.886 241.23 513.081 242.418 508.603 244.834C508.481 244.9 508.349 244.92 508.225 244.898Z" fill="#FB9476"/>
<path d="M499.87 230.302C499.604 232.423 498.55 234.006 497.512 233.841C496.47 233.673 495.841 231.814 496.105 229.691C496.21 228.856 496.437 228.106 496.737 227.512C494.862 227.3 494.414 225.879 494.414 225.879C495.592 226.266 497.237 226.233 498.019 226.19C498.297 226.17 498.467 226.154 498.467 226.154C499.505 226.321 500.137 228.176 499.87 230.302Z" fill="#181818"/>
<path d="M498.473 226.154C498.473 226.154 498.302 226.171 498.023 226.189C498.17 226.143 498.321 226.126 498.473 226.154Z" fill="#181818"/>
<path d="M525.841 229.717C525.464 228.831 524.969 227.948 524.436 227.153C523.898 226.354 523.293 225.627 522.645 224.987C522.003 224.338 521.296 223.807 520.564 223.381C519.843 222.928 519.055 222.679 518.294 222.456L518.216 222.434C517.388 222.192 516.891 221.232 517.103 220.291C517.314 219.349 518.158 218.781 518.984 219.023C519.08 219.051 519.177 219.092 519.263 219.139C520.224 219.659 521.156 220.23 521.952 220.992C522.757 221.727 523.477 222.557 524.079 223.466C524.689 224.367 525.206 225.322 525.634 226.317C526.06 227.319 526.405 228.324 526.649 229.419C526.707 229.679 526.571 229.942 526.342 230.008C526.143 230.066 525.941 229.954 525.855 229.75L525.841 229.717Z" fill="#111111"/>
<path d="M490.398 223.292C491.06 222.26 491.796 221.364 492.614 220.517C493.432 219.675 494.329 218.919 495.3 218.264C496.264 217.599 497.323 217.074 498.434 216.69C499.545 216.269 500.726 216.115 501.917 216.027C502.768 215.964 503.502 216.7 503.558 217.668C503.611 218.637 502.967 219.473 502.116 219.536C502.032 219.543 501.948 219.54 501.866 219.531L501.767 219.52C500.857 219.412 499.913 219.324 498.971 219.488C498.027 219.614 497.075 219.867 496.154 220.275C495.231 220.669 494.326 221.176 493.465 221.788C492.613 222.399 491.775 223.12 491.058 223.903L491.035 223.928C490.866 224.113 490.597 224.105 490.434 223.913C490.289 223.741 490.279 223.477 490.398 223.292Z" fill="#111111"/>
<path d="M489.651 203.901C489.651 203.901 501.853 222.863 530.359 221.936C545.696 221.437 532.376 194.167 509.515 192.634C486.653 191.102 489.651 203.901 489.651 203.901Z" fill="#002014"/>
<path d="M530.432 218.968C530.432 218.968 532.145 233.429 529.206 241.169C529.206 241.169 534.718 228.224 532.999 220.042C531.28 211.861 530.432 218.968 530.432 218.968Z" fill="#181818"/>
<path d="M497.295 203.958C497.295 203.958 483.708 230.332 487.032 251.622C490.354 272.91 495.207 289.859 481.806 291.448C468.543 293.023 459.746 287.092 447.87 292.439H447.868C447.744 292.497 447.622 292.551 447.495 292.611C447.184 292.757 446.905 292.844 446.647 292.884C444.591 293.186 444.197 290.129 444.968 284.913C445.243 283.068 445.66 280.958 446.199 278.628C448.701 267.84 453.846 252.405 459.435 237.571C463.825 225.922 468.489 214.642 472.365 206.276C473.777 203.229 475.085 200.573 476.236 198.419C488.501 175.509 515.818 181.969 515.818 181.969L497.295 203.958Z" fill="#002014"/>
<path d="M473.18 207.278C473.055 207.538 466.135 222.028 459.432 237.57C453.963 250.251 448.639 263.638 447.259 270.576C446.666 273.565 446.338 276.247 446.196 278.629C445.745 286.243 447.191 290.778 447.864 292.437C447.742 292.495 447.618 292.552 447.493 292.61C447.182 292.757 446.901 292.845 446.644 292.883C446.11 291.54 445.283 288.909 444.965 284.911C444.669 281.217 444.811 276.352 446.021 270.256C449.129 254.619 471.132 208.54 472.066 206.586C472.134 206.442 472.24 206.339 472.362 206.276C472.537 206.185 472.745 206.185 472.925 206.3C473.233 206.488 473.348 206.927 473.18 207.278Z" fill="#002014"/>
<g opacity="0.399994">
<g opacity="0.399994">
<g opacity="0.399994">
<g opacity="0.399994">
<g opacity="0.399994">
<g opacity="0.399994">
<path opacity="0.399994" d="M513.421 221.975C513.421 221.975 498.619 216.857 494.403 235.387C490.186 253.915 504.777 262.234 514.032 260.197C523.288 258.159 529.377 225.118 513.421 221.975Z" fill="#FFC29C"/>
</g>
</g>
</g>
</g>
</g>
</g>
<path d="M498.658 220.007C493.122 220.007 488.62 225.136 488.62 231.44C488.62 237.742 493.122 242.871 498.658 242.871C504.195 242.871 508.697 237.742 508.697 231.44C508.697 225.136 504.195 220.007 498.658 220.007ZM498.658 244.444C492.36 244.444 487.237 238.61 487.237 231.44C487.237 224.268 492.36 218.434 498.658 218.434C504.957 218.434 510.08 224.268 510.08 231.44C510.08 238.61 504.957 244.444 498.658 244.444Z" fill="white"/>
<path d="M523.961 225.85C518.425 225.85 513.922 230.978 513.922 237.281C513.922 243.585 518.425 248.713 523.961 248.713C529.497 248.713 534 243.585 534 237.281C534 230.978 529.497 225.85 523.961 225.85ZM523.961 250.286C517.663 250.286 512.539 244.453 512.539 237.281C512.539 230.111 517.663 224.277 523.961 224.277C530.259 224.277 535.383 230.111 535.383 237.281C535.383 244.453 530.259 250.286 523.961 250.286Z" fill="white"/>
<path d="M513.19 233.904C511.973 231.768 509.731 232.672 509.635 232.712L509.161 231.235C510.323 230.751 512.901 230.508 514.349 233.046L513.19 233.904Z" fill="white"/>
<path d="M531.353 532.612C528.158 535.223 523.804 543.026 516.242 545.765C473.284 561.329 433.196 531.122 433.196 531.122C430.815 517.725 432.289 502.504 436.251 496.932C435.005 494.953 435.83 492.587 435.83 492.587L416.913 452.654C417.371 452.982 446.587 474.012 468.236 488.91H468.245C474.484 493.201 480.093 496.983 484.203 499.611C490.475 503.62 498.481 504.012 506.325 502.782C521.614 500.376 536.281 491.798 536.281 491.798C536.281 491.798 572.863 467.236 582.096 468.084C589.274 468.74 563.3 513.811 531.353 532.612Z" fill="#108E59"/>
<path d="M450.444 573.015C450.444 573.015 448.131 573.509 444.374 574.387C443.303 574.637 442.117 574.913 440.835 575.223C439.134 575.632 437.264 576.089 435.269 576.594C434.131 576.88 432.953 577.182 431.742 577.495C416.682 581.401 396.739 587.342 388.709 593.151C388.146 593.559 387.599 593.963 387.074 594.369C374.838 603.736 372.335 611.825 370.065 610.184C367.696 608.475 367.166 601.461 371.031 596.849C373.707 593.653 375.58 588.992 379.173 583.953C380.145 582.59 381.241 581.199 382.514 579.801C388.135 573.635 397.129 567.261 402.152 562.361C402.476 562.047 402.783 561.735 403.073 561.432C407.207 557.09 408.82 548.155 416.365 545.439C420.051 544.115 424.469 544.631 428.732 545.911C429.489 546.138 430.243 546.392 430.983 546.66C432.092 547.064 433.177 547.508 434.223 547.966C435.667 548.61 437.037 549.288 438.286 549.952C439.483 550.588 440.574 551.21 441.513 551.77C443.78 553.123 445.182 554.128 445.182 554.128L450.444 573.015Z" fill="white"/>
<path d="M428.727 545.911C424.269 552.556 414 565.259 402.148 562.363C402.472 562.047 402.779 561.737 403.068 561.432C407.203 557.09 408.817 548.155 416.36 545.439C420.047 544.115 424.465 544.633 428.727 545.911Z" fill="#80D7B2"/>
<path d="M387.074 594.368C374.837 603.735 372.335 611.824 370.066 610.185C367.696 608.476 367.166 601.46 371.03 596.848C373.708 593.652 375.581 588.992 379.173 583.953C382.2 586.399 385.42 589.867 387.074 594.368Z" fill="#80D7B2"/>
<path d="M444.37 574.386C443.3 574.635 442.114 574.913 440.832 575.223C438.604 570.589 437.486 564.939 437.554 558.495C437.589 555.237 437.917 552.278 438.282 549.952C439.481 550.588 440.57 551.21 441.509 551.77C441.243 553.729 441.03 556.06 441.005 558.572C440.954 563.651 441.688 569.467 444.37 574.386Z" fill="#80D7B2"/>
<path d="M434.22 547.966C433.174 547.507 432.089 547.064 430.98 546.659C430.26 549.039 429.229 553.048 428.764 557.762C428.009 565.403 429.033 572.113 431.739 577.494C432.95 577.181 434.128 576.88 435.266 576.594C429.542 566.61 432.69 553.081 434.22 547.966Z" fill="#80D7B2"/>
<path d="M631.02 500.521C614.893 522.947 578.634 545.886 539.855 559.196C526.39 563.818 514.83 567.287 504.964 569.887C497.196 571.939 490.474 573.446 484.705 574.547C462.432 578.801 454.246 577.029 454.246 577.029C454.246 577.029 440.502 571.997 446.394 546.575C446.394 546.575 472.449 539.756 492.637 528.393C496.752 526.078 500.626 523.571 503.984 520.893C504.771 520.266 505.553 519.628 506.327 518.981C525.09 503.331 541.133 482.074 583.416 462.858C583.416 462.858 605.531 447.566 623.308 454.423C625.959 455.443 628.469 456.917 630.738 458.95C643.619 470.492 641.908 485.39 631.02 500.521Z" fill="#0CAD69"/>
<path d="M552.04 552.326L543.634 553.641L492.643 528.393C496.759 526.076 500.632 523.571 503.991 520.893C504.776 520.266 505.56 519.628 506.334 518.981L552.04 552.326Z" fill="#108E59"/>
<path d="M504.969 569.886C497.201 571.938 490.479 573.445 484.71 574.546C468.483 569.529 449.054 560.166 449.054 560.166L450.32 548.691L504.969 569.886Z" fill="#108E59"/>
<path d="M631.019 500.522C617.709 480.152 620.353 463.096 623.307 454.423C625.959 455.444 628.468 456.917 630.738 458.95C643.618 470.492 641.907 485.39 631.019 500.522Z" fill="#108E59"/>
<path d="M448.61 554.156C462.171 551.133 490.06 538.172 523.212 519.485C548.008 505.509 576.675 487.499 581.026 480.983C583.377 477.464 584.046 474.523 583.014 472.244C581.471 468.835 576.684 468.259 574.495 468.177C573.931 468.156 573.469 468.678 573.486 469.322C573.502 469.905 573.908 470.375 574.421 470.395C576.572 470.483 580.301 471.084 581.284 473.261C582.101 475.071 580.752 477.729 579.475 479.64C575.966 484.896 551.941 500.816 522.349 517.496C496.867 531.859 464.015 548.462 448.237 551.98L448.61 554.156Z" fill="#108E59"/>
<path d="M451.54 543.408C452.548 556.97 455.16 569.381 461.501 579.108C461.501 579.108 455.596 583.529 450.488 579.904C446.586 577.135 439.665 555.693 443.024 544.588C446.446 542.671 449.358 542.085 451.54 543.408Z" fill="#108E59"/>
<path d="M544.92 578.491C544.92 578.491 547.199 579.153 550.899 580.311C551.952 580.639 553.121 581.006 554.382 581.409C556.056 581.944 557.895 582.54 559.857 583.192C560.975 583.563 562.134 583.951 563.324 584.353C578.128 589.374 597.687 596.789 605.365 603.181C605.905 603.631 606.427 604.075 606.928 604.519C618.599 614.777 620.633 623.034 622.991 621.568C625.454 620.04 626.385 613.078 622.794 608.188C620.306 604.8 618.705 600.01 615.41 594.712C614.518 593.282 613.505 591.811 612.315 590.323C607.061 583.749 598.452 576.721 593.721 571.457C593.415 571.119 593.126 570.786 592.856 570.46C588.98 565.82 587.882 556.785 580.51 553.511C576.908 551.915 572.47 552.101 568.143 553.061C567.373 553.232 566.606 553.427 565.853 553.641C564.721 553.962 563.615 554.323 562.544 554.704C561.067 555.239 559.662 555.813 558.377 556.381C557.145 556.928 556.022 557.467 555.052 557.958C552.712 559.137 551.255 560.034 551.255 560.034L544.92 578.491Z" fill="white"/>
<path d="M568.144 553.06C572.211 560.025 581.729 573.463 593.721 571.456C593.416 571.118 593.128 570.785 592.856 570.461C588.98 565.819 587.882 556.784 580.511 553.511C576.908 551.916 572.471 552.101 568.144 553.06Z" fill="#80D7B2"/>
<path d="M606.927 604.518C618.597 614.777 620.631 623.035 622.989 621.568C625.452 620.039 626.383 613.078 622.792 608.188C620.304 604.8 618.705 600.009 615.408 594.712C612.246 596.928 608.835 600.15 606.927 604.518Z" fill="#80D7B2"/>
<path d="M550.9 580.31C551.952 580.638 553.12 581.006 554.382 581.408C556.871 576.952 558.312 571.396 558.614 564.96C558.766 561.707 558.609 558.73 558.377 556.382C557.146 556.927 556.021 557.467 555.051 557.957C555.207 559.931 555.286 562.272 555.166 564.783C554.925 569.853 553.857 575.601 550.9 580.31Z" fill="#80D7B2"/>
<path d="M559.858 583.191C560.976 583.562 562.134 583.95 563.325 584.352C566.334 579.184 567.742 572.565 567.427 564.884C567.233 560.146 566.434 556.069 565.852 553.64C564.723 553.961 563.616 554.322 562.546 554.703C563.779 559.919 566.142 573.653 559.858 583.191Z" fill="#80D7B2"/>
<path d="M549.234 552.763C553.652 578.572 539.65 582.568 539.65 582.568C539.65 582.568 518.786 585.491 455.249 558.398C418.617 542.779 384.84 518.369 369.236 495.481C357.778 478.677 356.118 462.686 370.319 451.596C373.591 449.041 377.259 447.577 381.076 446.895C398.657 443.754 419.425 457.226 419.425 457.226C462.211 480.472 451.502 488.46 487.182 514.341C507.588 529.141 549.234 552.763 549.234 552.763Z" fill="#0CAD69"/>
<path d="M381.076 446.894C381.757 455.621 382.923 484.8 369.236 495.481C357.777 478.676 356.118 462.685 370.32 451.595C373.593 449.04 377.259 447.577 381.076 446.894Z" fill="#108E59"/>
<path d="M546.592 560.164C533.233 556.137 506.149 541.126 474.141 520.01C450.202 504.217 422.631 484.111 418.663 477.285C416.52 473.598 416.021 470.614 417.18 468.418C418.916 465.129 423.727 464.912 425.916 464.994C426.48 465.015 426.911 465.57 426.857 466.209C426.807 466.79 426.374 467.229 425.862 467.212C423.71 467.14 419.956 467.461 418.85 469.562C417.929 471.306 419.124 474.058 420.288 476.062C423.487 481.566 446.547 499.243 475.118 518.092C499.72 534.322 531.547 553.335 547.091 558.02L546.592 560.164Z" fill="#108E59"/>
<path d="M544.282 549.22C542.496 562.679 539.177 574.866 532.292 584.1C532.292 584.1 537.93 588.952 543.235 585.716C547.286 583.245 555.424 562.364 552.712 551.033C549.407 548.864 546.536 548.064 544.282 549.22Z" fill="#108E59"/>
<path d="M608.343 446.419C603.599 453.331 597.055 457.197 591.86 461.152C579.367 470.665 554.018 476.679 555.923 443.909C557.831 411.141 579.601 424.42 563.584 366.867C556.747 342.311 552.038 291.693 552.038 291.693C552.038 291.693 587.822 320.238 608.995 390.638C610.645 396.122 611.893 401.128 612.795 405.703C616.89 426.488 613.808 438.467 608.343 446.419Z" fill="#FB4C47"/>
<path d="M608.341 446.419C600.578 430.636 607.016 415.034 612.792 405.703C616.887 426.488 613.806 438.467 608.341 446.419Z" fill="#B63A37"/>
<path d="M555.84 449.774C555.444 449.774 555.088 449.461 555.004 449.002C554.951 448.722 553.748 442.054 556.136 433.188C558.331 425.049 564.113 413.469 579.201 404.526C579.623 404.276 580.139 404.463 580.357 404.94C580.577 405.418 580.412 406.008 579.994 406.256C565.477 414.862 559.915 425.907 557.804 433.658C555.514 442.062 556.667 448.532 556.679 448.596C556.778 449.123 556.481 449.641 556.019 449.752C555.958 449.767 555.898 449.774 555.84 449.774Z" fill="#B63A37"/>
<path d="M568.841 414.067C568.725 414.08 568.602 414.065 568.485 414.02C568.034 413.848 567.792 413.295 567.945 412.785C570.723 403.369 572.503 399.339 572.577 399.172C572.791 398.691 573.306 398.499 573.729 398.744C574.15 398.988 574.319 399.574 574.105 400.054C574.086 400.094 572.299 404.151 569.57 413.406C569.458 413.782 569.167 414.03 568.841 414.067Z" fill="#B63A37"/>
<path d="M569.809 409.778C569.336 409.778 568.952 409.341 568.952 408.803C568.952 389.622 546.443 346.194 546.215 345.757C545.973 345.293 546.107 344.694 546.514 344.419C546.922 344.144 547.447 344.298 547.689 344.76C548.627 346.562 570.665 389.091 570.665 408.803C570.665 409.341 570.283 409.778 569.809 409.778Z" fill="#B63A37"/>
<path d="M553.876 360.488C553.697 360.488 553.517 360.425 553.363 360.294C550.45 357.815 543.079 355.622 543.005 355.601C542.547 355.467 542.272 354.934 542.392 354.414C542.509 353.89 542.978 353.577 543.434 353.713C543.75 353.806 551.206 356.022 554.389 358.731C554.767 359.054 554.846 359.665 554.562 360.097C554.394 360.352 554.136 360.488 553.876 360.488Z" fill="#B63A37"/>
<path d="M543.385 497.468C543.524 499.2 543.655 501.01 543.841 502.47C544.192 505.231 544.744 506.741 545.95 504.116C546.218 503.525 546.434 502.77 546.612 501.902C547.65 496.838 547.308 487.926 547.788 485.984C548.331 483.776 550.592 477.499 550.79 477.144C550.688 477.406 549.669 481.245 549.551 483.612C549.439 485.833 549.551 488.532 549.551 494C549.551 496.385 549.628 498.85 549.893 500.644V500.649C550.233 502.967 550.89 504.148 552.11 502.54C552.711 501.748 553.095 500.359 553.345 498.714C554.002 494.444 553.767 488.413 554.113 486.439C554.578 483.793 556.464 479.517 556.585 479.249C555.87 481.971 555.87 481.703 555.473 485.28C555.192 487.779 554.68 494.427 555.222 497.406C555.452 498.691 555.884 499.297 556.614 498.594C557.753 497.496 558.544 495.886 559.102 494.045C559.731 491.978 560.062 489.615 560.273 487.352C560.672 483.066 562.194 480.425 562.194 480.425C561.349 485.066 560.887 489.556 561.137 491.874C561.31 493.513 561.838 494.066 562.833 492.819C564.773 490.392 566.731 482.366 567.409 479.347C567.432 479.254 567.451 479.161 567.47 479.074C567.495 478.981 567.509 478.9 567.53 478.822C567.62 478.418 567.668 478.188 567.668 478.188L567.672 478.183C568.235 475.667 568.743 473.152 569.487 470.9C570.592 467.553 572.234 464.781 575.394 463.448C582.564 460.413 580.362 444.887 570.313 443.955C567.386 443.683 564.488 444.788 562.19 446.871C560.727 448.197 558.663 450.05 556.575 451.867L556.571 451.872C556.37 452.163 549.834 461.38 547.788 467.121C545.71 472.95 543.948 482.157 543.548 484.798C543.145 487.439 542.988 492.453 543.385 497.468Z" fill="#FAB893"/>
<path d="M385.421 454.078C390.194 461.163 396.779 465.13 402.005 469.185C414.576 478.94 440.081 485.106 438.164 451.502C436.245 417.903 414.342 431.519 430.458 372.503C437.335 347.323 438.164 297.142 438.164 297.142C438.164 297.142 406.07 324.688 384.766 396.878C383.105 402.5 381.849 407.633 380.944 412.326C376.823 433.64 379.924 445.924 385.421 454.078Z" fill="#FB4C47"/>
<path d="M385.619 455.457C393.382 439.673 386.944 424.072 381.169 414.741C377.074 435.526 380.155 447.505 385.619 455.457Z" fill="#B63A37"/>
<path d="M438.12 458.812C438.515 458.812 438.871 458.499 438.956 458.04C439.008 457.76 440.211 451.092 437.822 442.226C435.628 434.087 429.846 422.507 414.757 413.562C414.337 413.314 413.82 413.501 413.601 413.978C413.383 414.455 413.546 415.044 413.966 415.294C428.482 423.898 434.045 434.945 436.156 442.696C438.444 451.098 437.292 457.57 437.281 457.634C437.183 458.161 437.478 458.678 437.941 458.79C438 458.805 438.06 458.812 438.12 458.812Z" fill="#B63A37"/>
<path d="M425.122 423.104C425.239 423.117 425.36 423.102 425.479 423.057C425.927 422.885 426.169 422.332 426.019 421.822C423.24 412.406 421.46 408.376 421.386 408.209C421.172 407.729 420.657 407.536 420.234 407.782C419.812 408.025 419.643 408.611 419.857 409.093C419.875 409.131 421.663 413.188 424.394 422.443C424.505 422.819 424.796 423.067 425.122 423.104Z" fill="#B63A37"/>
<path d="M424.152 418.815C424.626 418.815 425.008 418.378 425.008 417.84C425.008 398.659 447.519 355.231 447.746 354.794C447.988 354.33 447.853 353.731 447.446 353.456C447.04 353.181 446.514 353.335 446.272 353.799C445.333 355.598 423.295 398.128 423.295 417.84C423.295 418.378 423.679 418.815 424.152 418.815Z" fill="#B63A37"/>
<path d="M440.085 369.525C440.264 369.525 440.443 369.462 440.597 369.33C443.51 366.851 450.88 364.66 450.954 364.639C451.413 364.505 451.689 363.971 451.57 363.45C451.45 362.928 450.982 362.615 450.525 362.749C450.21 362.842 442.754 365.059 439.57 367.768C439.192 368.09 439.115 368.702 439.397 369.135C439.566 369.39 439.824 369.525 440.085 369.525Z" fill="#B63A37"/>
<path d="M450.577 506.504C450.437 508.238 450.308 510.047 450.122 511.506C449.77 514.267 449.217 515.779 448.013 513.154C447.744 512.561 447.527 511.808 447.35 510.938C446.313 505.875 446.653 496.962 446.173 495.022C445.631 492.813 443.369 486.537 443.173 486.182C443.273 486.444 444.293 490.282 444.411 492.65C444.523 494.869 444.411 497.57 444.411 503.038C444.411 505.422 444.335 507.888 444.07 509.681V509.686C443.73 512.005 443.071 513.185 441.851 511.578C441.252 510.786 440.868 509.397 440.618 507.751C439.961 503.48 440.195 497.449 439.85 495.475C439.383 492.829 437.497 488.554 437.376 488.287C438.092 491.009 438.092 490.741 438.49 494.318C438.77 496.815 439.283 503.464 438.741 506.444C438.511 507.729 438.077 508.335 437.347 507.631C436.21 506.532 435.418 504.924 434.861 503.083C434.231 501.016 433.901 498.653 433.688 496.389C433.29 492.102 431.769 489.461 431.769 489.461C432.614 494.104 433.075 498.593 432.825 500.91C432.652 502.551 432.124 503.103 431.129 501.856C429.189 499.43 427.23 491.402 426.554 488.385C426.529 488.292 426.51 488.198 426.491 488.111C426.467 488.017 426.453 487.936 426.433 487.86C426.343 487.456 426.295 487.226 426.295 487.226L426.289 487.219C425.728 484.705 425.219 482.19 424.474 479.938C423.37 476.591 421.729 473.819 418.568 472.485C411.398 469.451 413.599 453.925 423.648 452.991C426.577 452.719 429.475 453.824 431.773 455.907C433.236 457.235 435.298 459.088 437.387 460.905L437.391 460.91C437.593 461.199 444.129 470.418 446.173 476.159C448.253 481.988 450.015 491.195 450.414 493.836C450.817 496.476 450.975 501.491 450.577 506.504Z" fill="#FAB893"/>
</svg>
